<mxfile host="app.diagrams.net" modified="2024-01-10T05:06:17.664Z" agent="Mozilla/5.0 (X11; Ubuntu; Linux x86_64; rv:121.0) Gecko/20100101 Firefox/121.0" etag="Z6FaERKZ3WCHRYZyBs8i" version="22.1.18" type="github">
  <diagram id="R2lEEEUBdFMjLlhIrx00" name="Page-1">
    <mxGraphModel dx="9243" dy="6264" grid="1" gridSize="10" guides="1" tooltips="1" connect="1" arrows="1" fold="1" page="1" pageScale="1" pageWidth="1169" pageHeight="827" math="0" shadow="0" extFonts="Permanent Marker^https://fonts.googleapis.com/css?family=Permanent+Marker">
      <root>
        <mxCell id="0" />
        <mxCell id="1" parent="0" />
        <mxCell id="PCRB14Bkoi_nJQecKA2T-1" value="Certificate" style="shape=table;startSize=30;container=1;collapsible=1;childLayout=tableLayout;fixedRows=1;rowLines=0;fontStyle=1;align=center;resizeLast=1;fillColor=#5D7F99;fontSize=16;labelBackgroundColor=none;fontColor=#1A1A1A;strokeColor=#D0CEE2;" parent="1" vertex="1">
          <mxGeometry x="-1560" y="-2090" width="710" height="1110" as="geometry" />
        </mxCell>
        <mxCell id="PCRB14Bkoi_nJQecKA2T-2" value="" style="shape=partialRectangle;collapsible=0;dropTarget=0;pointerEvents=0;fillColor=none;points=[[0,0.5],[1,0.5]];portConstraint=eastwest;top=0;left=0;right=0;bottom=1;fontSize=16;labelBackgroundColor=none;strokeColor=#D0CEE2;fontColor=#1A1A1A;" parent="PCRB14Bkoi_nJQecKA2T-1" vertex="1">
          <mxGeometry y="30" width="710" height="40" as="geometry" />
        </mxCell>
        <mxCell id="PCRB14Bkoi_nJQecKA2T-3" value="PK" style="shape=partialRectangle;overflow=hidden;connectable=0;fillColor=none;top=0;left=0;bottom=0;right=0;fontStyle=1;fontSize=16;labelBackgroundColor=none;strokeColor=#D0CEE2;fontColor=#1A1A1A;" parent="PCRB14Bkoi_nJQecKA2T-2" vertex="1">
          <mxGeometry width="120" height="40" as="geometry">
            <mxRectangle width="120" height="40" as="alternateBounds" />
          </mxGeometry>
        </mxCell>
        <mxCell id="PCRB14Bkoi_nJQecKA2T-4" value="serial_number VARCHAR (64) PRIMARY KEY" style="shape=partialRectangle;overflow=hidden;connectable=0;fillColor=none;top=0;left=0;bottom=0;right=0;align=left;spacingLeft=6;fontStyle=5;fontSize=16;labelBackgroundColor=none;strokeColor=#D0CEE2;fontColor=#1A1A1A;" parent="PCRB14Bkoi_nJQecKA2T-2" vertex="1">
          <mxGeometry x="120" width="590" height="40" as="geometry">
            <mxRectangle width="590" height="40" as="alternateBounds" />
          </mxGeometry>
        </mxCell>
        <mxCell id="PCRB14Bkoi_nJQecKA2T-5" value="" style="shape=partialRectangle;collapsible=0;dropTarget=0;pointerEvents=0;fillColor=none;points=[[0,0.5],[1,0.5]];portConstraint=eastwest;top=0;left=0;right=0;bottom=0;fontSize=16;labelBackgroundColor=none;strokeColor=#D0CEE2;fontColor=#1A1A1A;" parent="PCRB14Bkoi_nJQecKA2T-1" vertex="1">
          <mxGeometry y="70" width="710" height="40" as="geometry" />
        </mxCell>
        <mxCell id="PCRB14Bkoi_nJQecKA2T-6" value="" style="shape=partialRectangle;overflow=hidden;connectable=0;fillColor=none;top=0;left=0;bottom=0;right=0;fontSize=16;labelBackgroundColor=none;strokeColor=#D0CEE2;fontColor=#1A1A1A;" parent="PCRB14Bkoi_nJQecKA2T-5" vertex="1">
          <mxGeometry width="120" height="40" as="geometry">
            <mxRectangle width="120" height="40" as="alternateBounds" />
          </mxGeometry>
        </mxCell>
        <mxCell id="PCRB14Bkoi_nJQecKA2T-7" value="issue_date DATE NOT NULL" style="shape=partialRectangle;overflow=hidden;connectable=0;fillColor=none;top=0;left=0;bottom=0;right=0;align=left;spacingLeft=6;dashed=1;fontSize=16;labelBackgroundColor=none;strokeColor=#D0CEE2;fontColor=#1A1A1A;" parent="PCRB14Bkoi_nJQecKA2T-5" vertex="1">
          <mxGeometry x="120" width="590" height="40" as="geometry">
            <mxRectangle width="590" height="40" as="alternateBounds" />
          </mxGeometry>
        </mxCell>
        <mxCell id="PCRB14Bkoi_nJQecKA2T-8" value="" style="shape=partialRectangle;collapsible=0;dropTarget=0;pointerEvents=0;fillColor=none;points=[[0,0.5],[1,0.5]];portConstraint=eastwest;top=0;left=0;right=0;bottom=0;fontSize=16;labelBackgroundColor=none;strokeColor=#D0CEE2;fontColor=#1A1A1A;" parent="PCRB14Bkoi_nJQecKA2T-1" vertex="1">
          <mxGeometry y="110" width="710" height="40" as="geometry" />
        </mxCell>
        <mxCell id="PCRB14Bkoi_nJQecKA2T-9" value="" style="shape=partialRectangle;overflow=hidden;connectable=0;fillColor=none;top=0;left=0;bottom=0;right=0;fontSize=16;labelBackgroundColor=none;strokeColor=#D0CEE2;fontColor=#1A1A1A;" parent="PCRB14Bkoi_nJQecKA2T-8" vertex="1">
          <mxGeometry width="120" height="40" as="geometry">
            <mxRectangle width="120" height="40" as="alternateBounds" />
          </mxGeometry>
        </mxCell>
        <mxCell id="PCRB14Bkoi_nJQecKA2T-10" value="expiry_date DATE NOT NULL" style="shape=partialRectangle;overflow=hidden;connectable=0;fillColor=none;top=0;left=0;bottom=0;right=0;align=left;spacingLeft=6;dashed=1;fontSize=16;labelBackgroundColor=none;strokeColor=#D0CEE2;fontColor=#1A1A1A;" parent="PCRB14Bkoi_nJQecKA2T-8" vertex="1">
          <mxGeometry x="120" width="590" height="40" as="geometry">
            <mxRectangle width="590" height="40" as="alternateBounds" />
          </mxGeometry>
        </mxCell>
        <mxCell id="PCRB14Bkoi_nJQecKA2T-11" value="" style="shape=partialRectangle;collapsible=0;dropTarget=0;pointerEvents=0;fillColor=none;points=[[0,0.5],[1,0.5]];portConstraint=eastwest;top=0;left=0;right=0;bottom=0;fontSize=16;labelBackgroundColor=none;strokeColor=#D0CEE2;fontColor=#1A1A1A;" parent="PCRB14Bkoi_nJQecKA2T-1" vertex="1">
          <mxGeometry y="150" width="710" height="40" as="geometry" />
        </mxCell>
        <mxCell id="PCRB14Bkoi_nJQecKA2T-12" value="" style="shape=partialRectangle;overflow=hidden;connectable=0;fillColor=none;top=0;left=0;bottom=0;right=0;fontSize=16;labelBackgroundColor=none;strokeColor=#D0CEE2;fontColor=#1A1A1A;" parent="PCRB14Bkoi_nJQecKA2T-11" vertex="1">
          <mxGeometry width="120" height="40" as="geometry">
            <mxRectangle width="120" height="40" as="alternateBounds" />
          </mxGeometry>
        </mxCell>
        <mxCell id="PCRB14Bkoi_nJQecKA2T-13" value="version VARCHAR(10) NOT NULL" style="shape=partialRectangle;overflow=hidden;connectable=0;fillColor=none;top=0;left=0;bottom=0;right=0;align=left;spacingLeft=6;dashed=1;fontSize=16;labelBackgroundColor=none;strokeColor=#D0CEE2;fontColor=#1A1A1A;" parent="PCRB14Bkoi_nJQecKA2T-11" vertex="1">
          <mxGeometry x="120" width="590" height="40" as="geometry">
            <mxRectangle width="590" height="40" as="alternateBounds" />
          </mxGeometry>
        </mxCell>
        <mxCell id="sTGas-mFVDPfC52rBdnj-209" value="" style="shape=partialRectangle;collapsible=0;dropTarget=0;pointerEvents=0;fillColor=none;points=[[0,0.5],[1,0.5]];portConstraint=eastwest;top=0;left=0;right=0;bottom=0;fontSize=16;labelBackgroundColor=none;strokeColor=#D0CEE2;fontColor=#1A1A1A;" parent="PCRB14Bkoi_nJQecKA2T-1" vertex="1">
          <mxGeometry y="190" width="710" height="40" as="geometry" />
        </mxCell>
        <mxCell id="sTGas-mFVDPfC52rBdnj-210" value="" style="shape=partialRectangle;overflow=hidden;connectable=0;fillColor=none;top=0;left=0;bottom=0;right=0;fontSize=16;labelBackgroundColor=none;strokeColor=#D0CEE2;fontColor=#1A1A1A;" parent="sTGas-mFVDPfC52rBdnj-209" vertex="1">
          <mxGeometry width="120" height="40" as="geometry">
            <mxRectangle width="120" height="40" as="alternateBounds" />
          </mxGeometry>
        </mxCell>
        <mxCell id="sTGas-mFVDPfC52rBdnj-211" value="cert_type VARCHAR(20) NOT NULL " style="shape=partialRectangle;overflow=hidden;connectable=0;fillColor=none;top=0;left=0;bottom=0;right=0;align=left;spacingLeft=6;dashed=1;fontSize=16;labelBackgroundColor=none;strokeColor=#D0CEE2;fontColor=#1A1A1A;" parent="sTGas-mFVDPfC52rBdnj-209" vertex="1">
          <mxGeometry x="120" width="590" height="40" as="geometry">
            <mxRectangle width="590" height="40" as="alternateBounds" />
          </mxGeometry>
        </mxCell>
        <mxCell id="a8R6ChUF0B7tEaSIY0sK-5" value="" style="shape=partialRectangle;collapsible=0;dropTarget=0;pointerEvents=0;fillColor=none;points=[[0,0.5],[1,0.5]];portConstraint=eastwest;top=0;left=0;right=0;bottom=0;fontSize=16;labelBackgroundColor=none;strokeColor=#D0CEE2;fontColor=#1A1A1A;" parent="PCRB14Bkoi_nJQecKA2T-1" vertex="1">
          <mxGeometry y="230" width="710" height="40" as="geometry" />
        </mxCell>
        <mxCell id="a8R6ChUF0B7tEaSIY0sK-6" value="FK 1" style="shape=partialRectangle;overflow=hidden;connectable=0;fillColor=none;top=0;left=0;bottom=0;right=0;fontSize=16;labelBackgroundColor=none;strokeColor=#D0CEE2;fontColor=#1A1A1A;" parent="a8R6ChUF0B7tEaSIY0sK-5" vertex="1">
          <mxGeometry width="120" height="40" as="geometry">
            <mxRectangle width="120" height="40" as="alternateBounds" />
          </mxGeometry>
        </mxCell>
        <mxCell id="a8R6ChUF0B7tEaSIY0sK-7" value="issuer_cert_srNo" style="shape=partialRectangle;overflow=hidden;connectable=0;fillColor=none;top=0;left=0;bottom=0;right=0;align=left;spacingLeft=6;dashed=1;fontSize=16;labelBackgroundColor=none;strokeColor=#D0CEE2;fontColor=#1A1A1A;" parent="a8R6ChUF0B7tEaSIY0sK-5" vertex="1">
          <mxGeometry x="120" width="590" height="40" as="geometry">
            <mxRectangle width="590" height="40" as="alternateBounds" />
          </mxGeometry>
        </mxCell>
        <mxCell id="PCRB14Bkoi_nJQecKA2T-17" value="" style="shape=partialRectangle;collapsible=0;dropTarget=0;pointerEvents=0;fillColor=none;points=[[0,0.5],[1,0.5]];portConstraint=eastwest;top=0;left=0;right=0;bottom=0;fontSize=16;labelBackgroundColor=none;strokeColor=#D0CEE2;fontColor=#1A1A1A;" parent="PCRB14Bkoi_nJQecKA2T-1" vertex="1">
          <mxGeometry y="270" width="710" height="40" as="geometry" />
        </mxCell>
        <mxCell id="PCRB14Bkoi_nJQecKA2T-18" value="FK 2" style="shape=partialRectangle;overflow=hidden;connectable=0;fillColor=none;top=0;left=0;bottom=0;right=0;fontSize=16;labelBackgroundColor=none;strokeColor=#D0CEE2;fontColor=#1A1A1A;" parent="PCRB14Bkoi_nJQecKA2T-17" vertex="1">
          <mxGeometry width="120" height="40" as="geometry">
            <mxRectangle width="120" height="40" as="alternateBounds" />
          </mxGeometry>
        </mxCell>
        <mxCell id="PCRB14Bkoi_nJQecKA2T-19" value="subj_srNo" style="shape=partialRectangle;overflow=hidden;connectable=0;fillColor=none;top=0;left=0;bottom=0;right=0;align=left;spacingLeft=6;dashed=1;fontSize=16;labelBackgroundColor=none;strokeColor=#D0CEE2;fontColor=#1A1A1A;" parent="PCRB14Bkoi_nJQecKA2T-17" vertex="1">
          <mxGeometry x="120" width="590" height="40" as="geometry">
            <mxRectangle width="590" height="40" as="alternateBounds" />
          </mxGeometry>
        </mxCell>
        <mxCell id="PCRB14Bkoi_nJQecKA2T-20" value="" style="shape=partialRectangle;collapsible=0;dropTarget=0;pointerEvents=0;fillColor=none;points=[[0,0.5],[1,0.5]];portConstraint=eastwest;top=0;left=0;right=0;bottom=0;fontSize=16;labelBackgroundColor=none;strokeColor=#D0CEE2;fontColor=#1A1A1A;" parent="PCRB14Bkoi_nJQecKA2T-1" vertex="1">
          <mxGeometry y="310" width="710" height="40" as="geometry" />
        </mxCell>
        <mxCell id="PCRB14Bkoi_nJQecKA2T-21" value="" style="shape=partialRectangle;overflow=hidden;connectable=0;fillColor=none;top=0;left=0;bottom=0;right=0;fontSize=16;labelBackgroundColor=none;strokeColor=#D0CEE2;fontColor=#1A1A1A;" parent="PCRB14Bkoi_nJQecKA2T-20" vertex="1">
          <mxGeometry width="120" height="40" as="geometry">
            <mxRectangle width="120" height="40" as="alternateBounds" />
          </mxGeometry>
        </mxCell>
        <mxCell id="PCRB14Bkoi_nJQecKA2T-22" value="cert_fp_Digest VARCHAR (10) NOT NULL" style="shape=partialRectangle;overflow=hidden;connectable=0;fillColor=none;top=0;left=0;bottom=0;right=0;align=left;spacingLeft=6;dashed=1;fontSize=16;labelBackgroundColor=none;strokeColor=#D0CEE2;fontColor=#1A1A1A;" parent="PCRB14Bkoi_nJQecKA2T-20" vertex="1">
          <mxGeometry x="120" width="590" height="40" as="geometry">
            <mxRectangle width="590" height="40" as="alternateBounds" />
          </mxGeometry>
        </mxCell>
        <mxCell id="PCRB14Bkoi_nJQecKA2T-23" value="" style="shape=partialRectangle;collapsible=0;dropTarget=0;pointerEvents=0;fillColor=none;points=[[0,0.5],[1,0.5]];portConstraint=eastwest;top=0;left=0;right=0;bottom=0;fontSize=16;labelBackgroundColor=none;strokeColor=#D0CEE2;fontColor=#1A1A1A;" parent="PCRB14Bkoi_nJQecKA2T-1" vertex="1">
          <mxGeometry y="350" width="710" height="40" as="geometry" />
        </mxCell>
        <mxCell id="PCRB14Bkoi_nJQecKA2T-24" value="" style="shape=partialRectangle;overflow=hidden;connectable=0;fillColor=none;top=0;left=0;bottom=0;right=0;fontSize=16;labelBackgroundColor=none;strokeColor=#D0CEE2;fontColor=#1A1A1A;" parent="PCRB14Bkoi_nJQecKA2T-23" vertex="1">
          <mxGeometry width="120" height="40" as="geometry">
            <mxRectangle width="120" height="40" as="alternateBounds" />
          </mxGeometry>
        </mxCell>
        <mxCell id="PCRB14Bkoi_nJQecKA2T-25" value="cert_fp_algo VARCHAR (40) NOT NULL" style="shape=partialRectangle;overflow=hidden;connectable=0;fillColor=none;top=0;left=0;bottom=0;right=0;align=left;spacingLeft=6;dashed=1;fontSize=16;labelBackgroundColor=none;strokeColor=#D0CEE2;fontColor=#1A1A1A;" parent="PCRB14Bkoi_nJQecKA2T-23" vertex="1">
          <mxGeometry x="120" width="590" height="40" as="geometry">
            <mxRectangle width="590" height="40" as="alternateBounds" />
          </mxGeometry>
        </mxCell>
        <mxCell id="PCRB14Bkoi_nJQecKA2T-469" value="" style="shape=partialRectangle;collapsible=0;dropTarget=0;pointerEvents=0;fillColor=none;points=[[0,0.5],[1,0.5]];portConstraint=eastwest;top=0;left=0;right=0;bottom=0;fontSize=16;labelBackgroundColor=none;strokeColor=#D0CEE2;fontColor=#1A1A1A;" parent="PCRB14Bkoi_nJQecKA2T-1" vertex="1">
          <mxGeometry y="390" width="710" height="40" as="geometry" />
        </mxCell>
        <mxCell id="PCRB14Bkoi_nJQecKA2T-470" value="" style="shape=partialRectangle;overflow=hidden;connectable=0;fillColor=none;top=0;left=0;bottom=0;right=0;fontSize=16;labelBackgroundColor=none;strokeColor=#D0CEE2;fontColor=#1A1A1A;" parent="PCRB14Bkoi_nJQecKA2T-469" vertex="1">
          <mxGeometry width="120" height="40" as="geometry">
            <mxRectangle width="120" height="40" as="alternateBounds" />
          </mxGeometry>
        </mxCell>
        <mxCell id="PCRB14Bkoi_nJQecKA2T-471" value="" style="shape=partialRectangle;overflow=hidden;connectable=0;fillColor=none;top=0;left=0;bottom=0;right=0;align=left;spacingLeft=6;dashed=1;fontSize=16;labelBackgroundColor=none;strokeColor=#D0CEE2;fontColor=#1A1A1A;" parent="PCRB14Bkoi_nJQecKA2T-469" vertex="1">
          <mxGeometry x="120" width="590" height="40" as="geometry">
            <mxRectangle width="590" height="40" as="alternateBounds" />
          </mxGeometry>
        </mxCell>
        <mxCell id="PCRB14Bkoi_nJQecKA2T-26" value="" style="shape=partialRectangle;collapsible=0;dropTarget=0;pointerEvents=0;fillColor=none;points=[[0,0.5],[1,0.5]];portConstraint=eastwest;top=0;left=0;right=0;bottom=0;fontSize=16;labelBackgroundColor=none;strokeColor=#D0CEE2;fontColor=#1A1A1A;" parent="PCRB14Bkoi_nJQecKA2T-1" vertex="1">
          <mxGeometry y="430" width="710" height="40" as="geometry" />
        </mxCell>
        <mxCell id="PCRB14Bkoi_nJQecKA2T-27" value="" style="shape=partialRectangle;overflow=hidden;connectable=0;fillColor=none;top=0;left=0;bottom=0;right=0;fontSize=16;labelBackgroundColor=none;strokeColor=#D0CEE2;fontColor=#1A1A1A;" parent="PCRB14Bkoi_nJQecKA2T-26" vertex="1">
          <mxGeometry width="120" height="40" as="geometry">
            <mxRectangle width="120" height="40" as="alternateBounds" />
          </mxGeometry>
        </mxCell>
        <mxCell id="PCRB14Bkoi_nJQecKA2T-28" value="cert_public_key  VARCHAR(600) NOT NULL" style="shape=partialRectangle;overflow=hidden;connectable=0;fillColor=none;top=0;left=0;bottom=0;right=0;align=left;spacingLeft=6;dashed=1;fontSize=16;labelBackgroundColor=none;strokeColor=#D0CEE2;fontColor=#1A1A1A;" parent="PCRB14Bkoi_nJQecKA2T-26" vertex="1">
          <mxGeometry x="120" width="590" height="40" as="geometry">
            <mxRectangle width="590" height="40" as="alternateBounds" />
          </mxGeometry>
        </mxCell>
        <mxCell id="PCRB14Bkoi_nJQecKA2T-385" value="" style="shape=partialRectangle;collapsible=0;dropTarget=0;pointerEvents=0;fillColor=none;points=[[0,0.5],[1,0.5]];portConstraint=eastwest;top=0;left=0;right=0;bottom=0;fontSize=16;labelBackgroundColor=none;strokeColor=#D0CEE2;fontColor=#1A1A1A;" parent="PCRB14Bkoi_nJQecKA2T-1" vertex="1">
          <mxGeometry y="470" width="710" height="40" as="geometry" />
        </mxCell>
        <mxCell id="PCRB14Bkoi_nJQecKA2T-386" value="" style="shape=partialRectangle;overflow=hidden;connectable=0;fillColor=none;top=0;left=0;bottom=0;right=0;fontSize=16;labelBackgroundColor=none;strokeColor=#D0CEE2;fontColor=#1A1A1A;" parent="PCRB14Bkoi_nJQecKA2T-385" vertex="1">
          <mxGeometry width="120" height="40" as="geometry">
            <mxRectangle width="120" height="40" as="alternateBounds" />
          </mxGeometry>
        </mxCell>
        <mxCell id="PCRB14Bkoi_nJQecKA2T-387" value="cert_publicKey_algo VARCHAR(5)" style="shape=partialRectangle;overflow=hidden;connectable=0;fillColor=none;top=0;left=0;bottom=0;right=0;align=left;spacingLeft=6;dashed=1;fontSize=16;labelBackgroundColor=none;strokeColor=#D0CEE2;fontColor=#1A1A1A;" parent="PCRB14Bkoi_nJQecKA2T-385" vertex="1">
          <mxGeometry x="120" width="590" height="40" as="geometry">
            <mxRectangle width="590" height="40" as="alternateBounds" />
          </mxGeometry>
        </mxCell>
        <mxCell id="PCRB14Bkoi_nJQecKA2T-391" value="" style="shape=partialRectangle;collapsible=0;dropTarget=0;pointerEvents=0;fillColor=none;points=[[0,0.5],[1,0.5]];portConstraint=eastwest;top=0;left=0;right=0;bottom=0;fontSize=16;labelBackgroundColor=none;strokeColor=#D0CEE2;fontColor=#1A1A1A;" parent="PCRB14Bkoi_nJQecKA2T-1" vertex="1">
          <mxGeometry y="510" width="710" height="40" as="geometry" />
        </mxCell>
        <mxCell id="PCRB14Bkoi_nJQecKA2T-392" value="" style="shape=partialRectangle;overflow=hidden;connectable=0;fillColor=none;top=0;left=0;bottom=0;right=0;fontSize=16;labelBackgroundColor=none;strokeColor=#D0CEE2;fontColor=#1A1A1A;" parent="PCRB14Bkoi_nJQecKA2T-391" vertex="1">
          <mxGeometry width="120" height="40" as="geometry">
            <mxRectangle width="120" height="40" as="alternateBounds" />
          </mxGeometry>
        </mxCell>
        <mxCell id="PCRB14Bkoi_nJQecKA2T-393" value="cert_publicKey_size INT" style="shape=partialRectangle;overflow=hidden;connectable=0;fillColor=none;top=0;left=0;bottom=0;right=0;align=left;spacingLeft=6;dashed=1;fontSize=16;labelBackgroundColor=none;strokeColor=#D0CEE2;fontColor=#1A1A1A;" parent="PCRB14Bkoi_nJQecKA2T-391" vertex="1">
          <mxGeometry x="120" width="590" height="40" as="geometry">
            <mxRectangle width="590" height="40" as="alternateBounds" />
          </mxGeometry>
        </mxCell>
        <mxCell id="PCRB14Bkoi_nJQecKA2T-397" value="" style="shape=partialRectangle;collapsible=0;dropTarget=0;pointerEvents=0;fillColor=none;points=[[0,0.5],[1,0.5]];portConstraint=eastwest;top=0;left=0;right=0;bottom=0;fontSize=16;labelBackgroundColor=none;strokeColor=#D0CEE2;fontColor=#1A1A1A;" parent="PCRB14Bkoi_nJQecKA2T-1" vertex="1">
          <mxGeometry y="550" width="710" height="40" as="geometry" />
        </mxCell>
        <mxCell id="PCRB14Bkoi_nJQecKA2T-398" value="" style="shape=partialRectangle;overflow=hidden;connectable=0;fillColor=none;top=0;left=0;bottom=0;right=0;fontSize=16;labelBackgroundColor=none;strokeColor=#D0CEE2;fontColor=#1A1A1A;" parent="PCRB14Bkoi_nJQecKA2T-397" vertex="1">
          <mxGeometry width="120" height="40" as="geometry">
            <mxRectangle width="120" height="40" as="alternateBounds" />
          </mxGeometry>
        </mxCell>
        <mxCell id="PCRB14Bkoi_nJQecKA2T-399" value="cert_publicKey_digest VARCHAR(5)" style="shape=partialRectangle;overflow=hidden;connectable=0;fillColor=none;top=0;left=0;bottom=0;right=0;align=left;spacingLeft=6;dashed=1;fontSize=16;labelBackgroundColor=none;strokeColor=#D0CEE2;fontColor=#1A1A1A;" parent="PCRB14Bkoi_nJQecKA2T-397" vertex="1">
          <mxGeometry x="120" width="590" height="40" as="geometry">
            <mxRectangle width="590" height="40" as="alternateBounds" />
          </mxGeometry>
        </mxCell>
        <mxCell id="PCRB14Bkoi_nJQecKA2T-400" value="" style="shape=partialRectangle;collapsible=0;dropTarget=0;pointerEvents=0;fillColor=none;points=[[0,0.5],[1,0.5]];portConstraint=eastwest;top=0;left=0;right=0;bottom=0;fontSize=16;labelBackgroundColor=none;strokeColor=#D0CEE2;fontColor=#1A1A1A;" parent="PCRB14Bkoi_nJQecKA2T-1" vertex="1">
          <mxGeometry y="590" width="710" height="40" as="geometry" />
        </mxCell>
        <mxCell id="PCRB14Bkoi_nJQecKA2T-401" value="" style="shape=partialRectangle;overflow=hidden;connectable=0;fillColor=none;top=0;left=0;bottom=0;right=0;fontSize=16;labelBackgroundColor=none;strokeColor=#D0CEE2;fontColor=#1A1A1A;" parent="PCRB14Bkoi_nJQecKA2T-400" vertex="1">
          <mxGeometry width="120" height="40" as="geometry">
            <mxRectangle width="120" height="40" as="alternateBounds" />
          </mxGeometry>
        </mxCell>
        <mxCell id="PCRB14Bkoi_nJQecKA2T-402" value="cert_publicKey_digest_algo  VARCHAR(60)" style="shape=partialRectangle;overflow=hidden;connectable=0;fillColor=none;top=0;left=0;bottom=0;right=0;align=left;spacingLeft=6;dashed=1;fontSize=16;labelBackgroundColor=none;strokeColor=#D0CEE2;fontColor=#1A1A1A;" parent="PCRB14Bkoi_nJQecKA2T-400" vertex="1">
          <mxGeometry x="120" width="590" height="40" as="geometry">
            <mxRectangle width="590" height="40" as="alternateBounds" />
          </mxGeometry>
        </mxCell>
        <mxCell id="PCRB14Bkoi_nJQecKA2T-481" value="" style="shape=partialRectangle;collapsible=0;dropTarget=0;pointerEvents=0;fillColor=none;points=[[0,0.5],[1,0.5]];portConstraint=eastwest;top=0;left=0;right=0;bottom=0;fontSize=16;labelBackgroundColor=none;strokeColor=#D0CEE2;fontColor=#1A1A1A;" parent="PCRB14Bkoi_nJQecKA2T-1" vertex="1">
          <mxGeometry y="630" width="710" height="40" as="geometry" />
        </mxCell>
        <mxCell id="PCRB14Bkoi_nJQecKA2T-482" value="" style="shape=partialRectangle;overflow=hidden;connectable=0;fillColor=none;top=0;left=0;bottom=0;right=0;fontSize=16;labelBackgroundColor=none;strokeColor=#D0CEE2;fontColor=#1A1A1A;" parent="PCRB14Bkoi_nJQecKA2T-481" vertex="1">
          <mxGeometry width="120" height="40" as="geometry">
            <mxRectangle width="120" height="40" as="alternateBounds" />
          </mxGeometry>
        </mxCell>
        <mxCell id="PCRB14Bkoi_nJQecKA2T-483" value="" style="shape=partialRectangle;overflow=hidden;connectable=0;fillColor=none;top=0;left=0;bottom=0;right=0;align=left;spacingLeft=6;dashed=1;fontSize=16;labelBackgroundColor=none;strokeColor=#D0CEE2;fontColor=#1A1A1A;" parent="PCRB14Bkoi_nJQecKA2T-481" vertex="1">
          <mxGeometry x="120" width="590" height="40" as="geometry">
            <mxRectangle width="590" height="40" as="alternateBounds" />
          </mxGeometry>
        </mxCell>
        <mxCell id="PCRB14Bkoi_nJQecKA2T-35" value="" style="shape=partialRectangle;collapsible=0;dropTarget=0;pointerEvents=0;fillColor=none;points=[[0,0.5],[1,0.5]];portConstraint=eastwest;top=0;left=0;right=0;bottom=0;fontSize=16;labelBackgroundColor=none;strokeColor=#D0CEE2;fontColor=#1A1A1A;" parent="PCRB14Bkoi_nJQecKA2T-1" vertex="1">
          <mxGeometry y="670" width="710" height="40" as="geometry" />
        </mxCell>
        <mxCell id="PCRB14Bkoi_nJQecKA2T-36" value="" style="shape=partialRectangle;overflow=hidden;connectable=0;fillColor=none;top=0;left=0;bottom=0;right=0;fontSize=16;labelBackgroundColor=none;strokeColor=#D0CEE2;fontColor=#1A1A1A;" parent="PCRB14Bkoi_nJQecKA2T-35" vertex="1">
          <mxGeometry width="120" height="40" as="geometry">
            <mxRectangle width="120" height="40" as="alternateBounds" />
          </mxGeometry>
        </mxCell>
        <mxCell id="PCRB14Bkoi_nJQecKA2T-37" value="cert_BC_subjType VARCHAR(20)" style="shape=partialRectangle;overflow=hidden;connectable=0;fillColor=none;top=0;left=0;bottom=0;right=0;align=left;spacingLeft=6;dashed=1;fontSize=16;labelBackgroundColor=none;strokeColor=#D0CEE2;fontColor=#1A1A1A;" parent="PCRB14Bkoi_nJQecKA2T-35" vertex="1">
          <mxGeometry x="120" width="590" height="40" as="geometry">
            <mxRectangle width="590" height="40" as="alternateBounds" />
          </mxGeometry>
        </mxCell>
        <mxCell id="PCRB14Bkoi_nJQecKA2T-490" value="" style="shape=partialRectangle;collapsible=0;dropTarget=0;pointerEvents=0;fillColor=none;points=[[0,0.5],[1,0.5]];portConstraint=eastwest;top=0;left=0;right=0;bottom=0;fontSize=16;labelBackgroundColor=none;strokeColor=#D0CEE2;fontColor=#1A1A1A;" parent="PCRB14Bkoi_nJQecKA2T-1" vertex="1">
          <mxGeometry y="710" width="710" height="40" as="geometry" />
        </mxCell>
        <mxCell id="PCRB14Bkoi_nJQecKA2T-491" value="" style="shape=partialRectangle;overflow=hidden;connectable=0;fillColor=none;top=0;left=0;bottom=0;right=0;fontSize=16;labelBackgroundColor=none;strokeColor=#D0CEE2;fontColor=#1A1A1A;" parent="PCRB14Bkoi_nJQecKA2T-490" vertex="1">
          <mxGeometry width="120" height="40" as="geometry">
            <mxRectangle width="120" height="40" as="alternateBounds" />
          </mxGeometry>
        </mxCell>
        <mxCell id="PCRB14Bkoi_nJQecKA2T-492" value="cert_BC_MpathL VARCHAR(20)" style="shape=partialRectangle;overflow=hidden;connectable=0;fillColor=none;top=0;left=0;bottom=0;right=0;align=left;spacingLeft=6;dashed=1;fontSize=16;labelBackgroundColor=none;strokeColor=#D0CEE2;fontColor=#1A1A1A;" parent="PCRB14Bkoi_nJQecKA2T-490" vertex="1">
          <mxGeometry x="120" width="590" height="40" as="geometry">
            <mxRectangle width="590" height="40" as="alternateBounds" />
          </mxGeometry>
        </mxCell>
        <mxCell id="PCRB14Bkoi_nJQecKA2T-484" value="" style="shape=partialRectangle;collapsible=0;dropTarget=0;pointerEvents=0;fillColor=none;points=[[0,0.5],[1,0.5]];portConstraint=eastwest;top=0;left=0;right=0;bottom=0;fontSize=16;labelBackgroundColor=none;strokeColor=#D0CEE2;fontColor=#1A1A1A;" parent="PCRB14Bkoi_nJQecKA2T-1" vertex="1">
          <mxGeometry y="750" width="710" height="40" as="geometry" />
        </mxCell>
        <mxCell id="PCRB14Bkoi_nJQecKA2T-485" value="" style="shape=partialRectangle;overflow=hidden;connectable=0;fillColor=none;top=0;left=0;bottom=0;right=0;fontSize=16;labelBackgroundColor=none;strokeColor=#D0CEE2;fontColor=#1A1A1A;" parent="PCRB14Bkoi_nJQecKA2T-484" vertex="1">
          <mxGeometry width="120" height="40" as="geometry">
            <mxRectangle width="120" height="40" as="alternateBounds" />
          </mxGeometry>
        </mxCell>
        <mxCell id="PCRB14Bkoi_nJQecKA2T-486" value="" style="shape=partialRectangle;overflow=hidden;connectable=0;fillColor=none;top=0;left=0;bottom=0;right=0;align=left;spacingLeft=6;dashed=1;fontSize=16;labelBackgroundColor=none;strokeColor=#D0CEE2;fontColor=#1A1A1A;" parent="PCRB14Bkoi_nJQecKA2T-484" vertex="1">
          <mxGeometry x="120" width="590" height="40" as="geometry">
            <mxRectangle width="590" height="40" as="alternateBounds" />
          </mxGeometry>
        </mxCell>
        <mxCell id="PCRB14Bkoi_nJQecKA2T-38" value="" style="shape=partialRectangle;collapsible=0;dropTarget=0;pointerEvents=0;fillColor=none;points=[[0,0.5],[1,0.5]];portConstraint=eastwest;top=0;left=0;right=0;bottom=0;fontSize=16;labelBackgroundColor=none;strokeColor=#D0CEE2;fontColor=#1A1A1A;" parent="PCRB14Bkoi_nJQecKA2T-1" vertex="1">
          <mxGeometry y="790" width="710" height="40" as="geometry" />
        </mxCell>
        <mxCell id="PCRB14Bkoi_nJQecKA2T-39" value="" style="shape=partialRectangle;overflow=hidden;connectable=0;fillColor=none;top=0;left=0;bottom=0;right=0;fontSize=16;labelBackgroundColor=none;strokeColor=#D0CEE2;fontColor=#1A1A1A;" parent="PCRB14Bkoi_nJQecKA2T-38" vertex="1">
          <mxGeometry width="120" height="40" as="geometry">
            <mxRectangle width="120" height="40" as="alternateBounds" />
          </mxGeometry>
        </mxCell>
        <mxCell id="PCRB14Bkoi_nJQecKA2T-40" value="cert_key_usage VARCHAR(20)" style="shape=partialRectangle;overflow=hidden;connectable=0;fillColor=none;top=0;left=0;bottom=0;right=0;align=left;spacingLeft=6;dashed=1;fontSize=16;labelBackgroundColor=none;strokeColor=#D0CEE2;fontColor=#1A1A1A;" parent="PCRB14Bkoi_nJQecKA2T-38" vertex="1">
          <mxGeometry x="120" width="590" height="40" as="geometry">
            <mxRectangle width="590" height="40" as="alternateBounds" />
          </mxGeometry>
        </mxCell>
        <mxCell id="PCRB14Bkoi_nJQecKA2T-496" value="" style="shape=partialRectangle;collapsible=0;dropTarget=0;pointerEvents=0;fillColor=none;points=[[0,0.5],[1,0.5]];portConstraint=eastwest;top=0;left=0;right=0;bottom=0;fontSize=16;labelBackgroundColor=none;strokeColor=#D0CEE2;fontColor=#1A1A1A;" parent="PCRB14Bkoi_nJQecKA2T-1" vertex="1">
          <mxGeometry y="830" width="710" height="40" as="geometry" />
        </mxCell>
        <mxCell id="PCRB14Bkoi_nJQecKA2T-497" value="" style="shape=partialRectangle;overflow=hidden;connectable=0;fillColor=none;top=0;left=0;bottom=0;right=0;fontSize=16;labelBackgroundColor=none;strokeColor=#D0CEE2;fontColor=#1A1A1A;" parent="PCRB14Bkoi_nJQecKA2T-496" vertex="1">
          <mxGeometry width="120" height="40" as="geometry">
            <mxRectangle width="120" height="40" as="alternateBounds" />
          </mxGeometry>
        </mxCell>
        <mxCell id="PCRB14Bkoi_nJQecKA2T-498" value="" style="shape=partialRectangle;overflow=hidden;connectable=0;fillColor=none;top=0;left=0;bottom=0;right=0;align=left;spacingLeft=6;dashed=1;fontSize=16;labelBackgroundColor=none;strokeColor=#D0CEE2;fontColor=#1A1A1A;" parent="PCRB14Bkoi_nJQecKA2T-496" vertex="1">
          <mxGeometry x="120" width="590" height="40" as="geometry">
            <mxRectangle width="590" height="40" as="alternateBounds" />
          </mxGeometry>
        </mxCell>
        <mxCell id="PCRB14Bkoi_nJQecKA2T-41" value="" style="shape=partialRectangle;collapsible=0;dropTarget=0;pointerEvents=0;fillColor=none;points=[[0,0.5],[1,0.5]];portConstraint=eastwest;top=0;left=0;right=0;bottom=0;fontSize=16;labelBackgroundColor=none;strokeColor=#D0CEE2;fontColor=#1A1A1A;" parent="PCRB14Bkoi_nJQecKA2T-1" vertex="1">
          <mxGeometry y="870" width="710" height="40" as="geometry" />
        </mxCell>
        <mxCell id="PCRB14Bkoi_nJQecKA2T-42" value="" style="shape=partialRectangle;overflow=hidden;connectable=0;fillColor=none;top=0;left=0;bottom=0;right=0;fontSize=16;labelBackgroundColor=none;strokeColor=#D0CEE2;fontColor=#1A1A1A;" parent="PCRB14Bkoi_nJQecKA2T-41" vertex="1">
          <mxGeometry width="120" height="40" as="geometry">
            <mxRectangle width="120" height="40" as="alternateBounds" />
          </mxGeometry>
        </mxCell>
        <mxCell id="PCRB14Bkoi_nJQecKA2T-43" value="cert_sign VARCHAR(600) NOT NULL" style="shape=partialRectangle;overflow=hidden;connectable=0;fillColor=none;top=0;left=0;bottom=0;right=0;align=left;spacingLeft=6;dashed=1;fontSize=16;labelBackgroundColor=none;strokeColor=#D0CEE2;fontColor=#1A1A1A;" parent="PCRB14Bkoi_nJQecKA2T-41" vertex="1">
          <mxGeometry x="120" width="590" height="40" as="geometry">
            <mxRectangle width="590" height="40" as="alternateBounds" />
          </mxGeometry>
        </mxCell>
        <mxCell id="PCRB14Bkoi_nJQecKA2T-502" value="" style="shape=partialRectangle;collapsible=0;dropTarget=0;pointerEvents=0;fillColor=none;points=[[0,0.5],[1,0.5]];portConstraint=eastwest;top=0;left=0;right=0;bottom=0;fontSize=16;labelBackgroundColor=none;strokeColor=#D0CEE2;fontColor=#1A1A1A;" parent="PCRB14Bkoi_nJQecKA2T-1" vertex="1">
          <mxGeometry y="910" width="710" height="40" as="geometry" />
        </mxCell>
        <mxCell id="PCRB14Bkoi_nJQecKA2T-503" value="" style="shape=partialRectangle;overflow=hidden;connectable=0;fillColor=none;top=0;left=0;bottom=0;right=0;fontSize=16;labelBackgroundColor=none;strokeColor=#D0CEE2;fontColor=#1A1A1A;" parent="PCRB14Bkoi_nJQecKA2T-502" vertex="1">
          <mxGeometry width="120" height="40" as="geometry">
            <mxRectangle width="120" height="40" as="alternateBounds" />
          </mxGeometry>
        </mxCell>
        <mxCell id="PCRB14Bkoi_nJQecKA2T-504" value="cert_sign_algo VARCHAR(50) NOT NULL" style="shape=partialRectangle;overflow=hidden;connectable=0;fillColor=none;top=0;left=0;bottom=0;right=0;align=left;spacingLeft=6;dashed=1;fontSize=16;labelBackgroundColor=none;strokeColor=#D0CEE2;fontColor=#1A1A1A;" parent="PCRB14Bkoi_nJQecKA2T-502" vertex="1">
          <mxGeometry x="120" width="590" height="40" as="geometry">
            <mxRectangle width="590" height="40" as="alternateBounds" />
          </mxGeometry>
        </mxCell>
        <mxCell id="PCRB14Bkoi_nJQecKA2T-505" value="" style="shape=partialRectangle;collapsible=0;dropTarget=0;pointerEvents=0;fillColor=none;points=[[0,0.5],[1,0.5]];portConstraint=eastwest;top=0;left=0;right=0;bottom=0;fontSize=16;labelBackgroundColor=none;strokeColor=#D0CEE2;fontColor=#1A1A1A;" parent="PCRB14Bkoi_nJQecKA2T-1" vertex="1">
          <mxGeometry y="950" width="710" height="40" as="geometry" />
        </mxCell>
        <mxCell id="PCRB14Bkoi_nJQecKA2T-506" value="" style="shape=partialRectangle;overflow=hidden;connectable=0;fillColor=none;top=0;left=0;bottom=0;right=0;fontSize=16;labelBackgroundColor=none;strokeColor=#D0CEE2;fontColor=#1A1A1A;" parent="PCRB14Bkoi_nJQecKA2T-505" vertex="1">
          <mxGeometry width="120" height="40" as="geometry">
            <mxRectangle width="120" height="40" as="alternateBounds" />
          </mxGeometry>
        </mxCell>
        <mxCell id="PCRB14Bkoi_nJQecKA2T-507" value="" style="shape=partialRectangle;overflow=hidden;connectable=0;fillColor=none;top=0;left=0;bottom=0;right=0;align=left;spacingLeft=6;dashed=1;fontSize=16;labelBackgroundColor=none;strokeColor=#D0CEE2;fontColor=#1A1A1A;" parent="PCRB14Bkoi_nJQecKA2T-505" vertex="1">
          <mxGeometry x="120" width="590" height="40" as="geometry">
            <mxRectangle width="590" height="40" as="alternateBounds" />
          </mxGeometry>
        </mxCell>
        <mxCell id="PCRB14Bkoi_nJQecKA2T-517" value="" style="shape=partialRectangle;collapsible=0;dropTarget=0;pointerEvents=0;fillColor=none;points=[[0,0.5],[1,0.5]];portConstraint=eastwest;top=0;left=0;right=0;bottom=0;fontSize=16;labelBackgroundColor=none;strokeColor=#D0CEE2;fontColor=#1A1A1A;" parent="PCRB14Bkoi_nJQecKA2T-1" vertex="1">
          <mxGeometry y="990" width="710" height="40" as="geometry" />
        </mxCell>
        <mxCell id="PCRB14Bkoi_nJQecKA2T-518" value="" style="shape=partialRectangle;overflow=hidden;connectable=0;fillColor=none;top=0;left=0;bottom=0;right=0;fontSize=16;labelBackgroundColor=none;strokeColor=#D0CEE2;fontColor=#1A1A1A;" parent="PCRB14Bkoi_nJQecKA2T-517" vertex="1">
          <mxGeometry width="120" height="40" as="geometry">
            <mxRectangle width="120" height="40" as="alternateBounds" />
          </mxGeometry>
        </mxCell>
        <mxCell id="PCRB14Bkoi_nJQecKA2T-519" value="cert_ocsp_url VARCHAR (50)" style="shape=partialRectangle;overflow=hidden;connectable=0;fillColor=none;top=0;left=0;bottom=0;right=0;align=left;spacingLeft=6;dashed=1;fontSize=16;labelBackgroundColor=none;strokeColor=#D0CEE2;fontColor=#1A1A1A;" parent="PCRB14Bkoi_nJQecKA2T-517" vertex="1">
          <mxGeometry x="120" width="590" height="40" as="geometry">
            <mxRectangle width="590" height="40" as="alternateBounds" />
          </mxGeometry>
        </mxCell>
        <mxCell id="PCRB14Bkoi_nJQecKA2T-355" value="" style="shape=partialRectangle;collapsible=0;dropTarget=0;pointerEvents=0;fillColor=none;points=[[0,0.5],[1,0.5]];portConstraint=eastwest;top=0;left=0;right=0;bottom=0;fontSize=16;labelBackgroundColor=none;strokeColor=#D0CEE2;fontColor=#1A1A1A;" parent="PCRB14Bkoi_nJQecKA2T-1" vertex="1">
          <mxGeometry y="1030" width="710" height="40" as="geometry" />
        </mxCell>
        <mxCell id="PCRB14Bkoi_nJQecKA2T-356" value="" style="shape=partialRectangle;overflow=hidden;connectable=0;fillColor=none;top=0;left=0;bottom=0;right=0;fontSize=16;labelBackgroundColor=none;strokeColor=#D0CEE2;fontColor=#1A1A1A;" parent="PCRB14Bkoi_nJQecKA2T-355" vertex="1">
          <mxGeometry width="120" height="40" as="geometry">
            <mxRectangle width="120" height="40" as="alternateBounds" />
          </mxGeometry>
        </mxCell>
        <mxCell id="PCRB14Bkoi_nJQecKA2T-357" value="cert_CRL_distPt VARCHAR(255) NOT NULL" style="shape=partialRectangle;overflow=hidden;connectable=0;fillColor=none;top=0;left=0;bottom=0;right=0;align=left;spacingLeft=6;dashed=1;fontSize=16;labelBackgroundColor=none;strokeColor=#D0CEE2;fontColor=#1A1A1A;" parent="PCRB14Bkoi_nJQecKA2T-355" vertex="1">
          <mxGeometry x="120" width="590" height="40" as="geometry">
            <mxRectangle width="590" height="40" as="alternateBounds" />
          </mxGeometry>
        </mxCell>
        <mxCell id="PCRB14Bkoi_nJQecKA2T-44" value="" style="shape=partialRectangle;collapsible=0;dropTarget=0;pointerEvents=0;fillColor=none;points=[[0,0.5],[1,0.5]];portConstraint=eastwest;top=0;left=0;right=0;bottom=0;fontSize=16;labelBackgroundColor=none;strokeColor=#D0CEE2;fontColor=#1A1A1A;" parent="PCRB14Bkoi_nJQecKA2T-1" vertex="1">
          <mxGeometry y="1070" width="710" height="40" as="geometry" />
        </mxCell>
        <mxCell id="PCRB14Bkoi_nJQecKA2T-45" value="" style="shape=partialRectangle;overflow=hidden;connectable=0;fillColor=none;top=0;left=0;bottom=0;right=0;fontSize=16;labelBackgroundColor=none;strokeColor=#D0CEE2;fontColor=#1A1A1A;" parent="PCRB14Bkoi_nJQecKA2T-44" vertex="1">
          <mxGeometry width="120" height="40" as="geometry">
            <mxRectangle width="120" height="40" as="alternateBounds" />
          </mxGeometry>
        </mxCell>
        <mxCell id="PCRB14Bkoi_nJQecKA2T-46" value="raw_certificate TEXT NOT NULL" style="shape=partialRectangle;overflow=hidden;connectable=0;fillColor=none;top=0;left=0;bottom=0;right=0;align=left;spacingLeft=6;dashed=1;fontSize=16;labelBackgroundColor=none;strokeColor=#D0CEE2;fontColor=#1A1A1A;" parent="PCRB14Bkoi_nJQecKA2T-44" vertex="1">
          <mxGeometry x="120" width="590" height="40" as="geometry">
            <mxRectangle width="590" height="40" as="alternateBounds" />
          </mxGeometry>
        </mxCell>
        <mxCell id="PCRB14Bkoi_nJQecKA2T-47" value="Subject" style="shape=table;startSize=30;container=1;collapsible=1;childLayout=tableLayout;fixedRows=1;rowLines=0;fontStyle=1;align=center;resizeLast=1;html=1;fontSize=16;labelBackgroundColor=none;fillColor=#5D7F99;fontColor=#1A1A1A;strokeColor=#D0CEE2;" parent="1" vertex="1">
          <mxGeometry x="-2418" y="-1570" width="400" height="390" as="geometry" />
        </mxCell>
        <mxCell id="PCRB14Bkoi_nJQecKA2T-48" value="" style="shape=tableRow;horizontal=0;startSize=0;swimlaneHead=0;swimlaneBody=0;fillColor=none;collapsible=0;dropTarget=0;points=[[0,0.5],[1,0.5]];portConstraint=eastwest;top=0;left=0;right=0;bottom=1;fontSize=16;labelBackgroundColor=none;strokeColor=#D0CEE2;fontColor=#1A1A1A;" parent="PCRB14Bkoi_nJQecKA2T-47" vertex="1">
          <mxGeometry y="30" width="400" height="40" as="geometry" />
        </mxCell>
        <mxCell id="PCRB14Bkoi_nJQecKA2T-49" value="PK" style="shape=partialRectangle;connectable=0;fillColor=none;top=0;left=0;bottom=0;right=0;fontStyle=1;overflow=hidden;whiteSpace=wrap;html=1;fontSize=16;labelBackgroundColor=none;strokeColor=#D0CEE2;fontColor=#1A1A1A;" parent="PCRB14Bkoi_nJQecKA2T-48" vertex="1">
          <mxGeometry width="80" height="40" as="geometry">
            <mxRectangle width="80" height="40" as="alternateBounds" />
          </mxGeometry>
        </mxCell>
        <mxCell id="PCRB14Bkoi_nJQecKA2T-50" value="subj_srNo INT PRIMARY KEY" style="shape=partialRectangle;connectable=0;fillColor=none;top=0;left=0;bottom=0;right=0;align=left;spacingLeft=6;fontStyle=5;overflow=hidden;whiteSpace=wrap;html=1;fontSize=16;labelBackgroundColor=none;strokeColor=#D0CEE2;fontColor=#1A1A1A;" parent="PCRB14Bkoi_nJQecKA2T-48" vertex="1">
          <mxGeometry x="80" width="320" height="40" as="geometry">
            <mxRectangle width="320" height="40" as="alternateBounds" />
          </mxGeometry>
        </mxCell>
        <mxCell id="PCRB14Bkoi_nJQecKA2T-51" value="" style="shape=tableRow;horizontal=0;startSize=0;swimlaneHead=0;swimlaneBody=0;fillColor=none;collapsible=0;dropTarget=0;points=[[0,0.5],[1,0.5]];portConstraint=eastwest;top=0;left=0;right=0;bottom=0;fontSize=16;labelBackgroundColor=none;strokeColor=#D0CEE2;fontColor=#1A1A1A;" parent="PCRB14Bkoi_nJQecKA2T-47" vertex="1">
          <mxGeometry y="70" width="400" height="40" as="geometry" />
        </mxCell>
        <mxCell id="PCRB14Bkoi_nJQecKA2T-52" value="" style="shape=partialRectangle;connectable=0;fillColor=none;top=0;left=0;bottom=0;right=0;editable=1;overflow=hidden;whiteSpace=wrap;html=1;fontSize=16;labelBackgroundColor=none;strokeColor=#D0CEE2;fontColor=#1A1A1A;" parent="PCRB14Bkoi_nJQecKA2T-51" vertex="1">
          <mxGeometry width="80" height="40" as="geometry">
            <mxRectangle width="80" height="40" as="alternateBounds" />
          </mxGeometry>
        </mxCell>
        <mxCell id="PCRB14Bkoi_nJQecKA2T-53" value="subj_C VARCHAR(15) NOT NULL" style="shape=partialRectangle;connectable=0;fillColor=none;top=0;left=0;bottom=0;right=0;align=left;spacingLeft=6;overflow=hidden;whiteSpace=wrap;html=1;fontSize=16;labelBackgroundColor=none;strokeColor=#D0CEE2;fontColor=#1A1A1A;" parent="PCRB14Bkoi_nJQecKA2T-51" vertex="1">
          <mxGeometry x="80" width="320" height="40" as="geometry">
            <mxRectangle width="320" height="40" as="alternateBounds" />
          </mxGeometry>
        </mxCell>
        <mxCell id="PCRB14Bkoi_nJQecKA2T-54" value="" style="shape=tableRow;horizontal=0;startSize=0;swimlaneHead=0;swimlaneBody=0;fillColor=none;collapsible=0;dropTarget=0;points=[[0,0.5],[1,0.5]];portConstraint=eastwest;top=0;left=0;right=0;bottom=0;fontSize=16;labelBackgroundColor=none;strokeColor=#D0CEE2;fontColor=#1A1A1A;" parent="PCRB14Bkoi_nJQecKA2T-47" vertex="1">
          <mxGeometry y="110" width="400" height="40" as="geometry" />
        </mxCell>
        <mxCell id="PCRB14Bkoi_nJQecKA2T-55" value="" style="shape=partialRectangle;connectable=0;fillColor=none;top=0;left=0;bottom=0;right=0;editable=1;overflow=hidden;whiteSpace=wrap;html=1;fontSize=16;labelBackgroundColor=none;strokeColor=#D0CEE2;fontColor=#1A1A1A;" parent="PCRB14Bkoi_nJQecKA2T-54" vertex="1">
          <mxGeometry width="80" height="40" as="geometry">
            <mxRectangle width="80" height="40" as="alternateBounds" />
          </mxGeometry>
        </mxCell>
        <mxCell id="PCRB14Bkoi_nJQecKA2T-56" value="subj_O VARCHAR(255)" style="shape=partialRectangle;connectable=0;fillColor=none;top=0;left=0;bottom=0;right=0;align=left;spacingLeft=6;overflow=hidden;whiteSpace=wrap;html=1;fontSize=16;labelBackgroundColor=none;strokeColor=#D0CEE2;fontColor=#1A1A1A;" parent="PCRB14Bkoi_nJQecKA2T-54" vertex="1">
          <mxGeometry x="80" width="320" height="40" as="geometry">
            <mxRectangle width="320" height="40" as="alternateBounds" />
          </mxGeometry>
        </mxCell>
        <mxCell id="PCRB14Bkoi_nJQecKA2T-57" value="" style="shape=tableRow;horizontal=0;startSize=0;swimlaneHead=0;swimlaneBody=0;fillColor=none;collapsible=0;dropTarget=0;points=[[0,0.5],[1,0.5]];portConstraint=eastwest;top=0;left=0;right=0;bottom=0;fontSize=16;labelBackgroundColor=none;strokeColor=#D0CEE2;fontColor=#1A1A1A;" parent="PCRB14Bkoi_nJQecKA2T-47" vertex="1">
          <mxGeometry y="150" width="400" height="40" as="geometry" />
        </mxCell>
        <mxCell id="PCRB14Bkoi_nJQecKA2T-58" value="UNIQUE" style="shape=partialRectangle;connectable=0;fillColor=none;top=0;left=0;bottom=0;right=0;editable=1;overflow=hidden;whiteSpace=wrap;html=1;fontSize=16;labelBackgroundColor=none;strokeColor=#D0CEE2;fontColor=#1A1A1A;" parent="PCRB14Bkoi_nJQecKA2T-57" vertex="1">
          <mxGeometry width="80" height="40" as="geometry">
            <mxRectangle width="80" height="40" as="alternateBounds" />
          </mxGeometry>
        </mxCell>
        <mxCell id="PCRB14Bkoi_nJQecKA2T-59" value="subj_teleNum VARCHAR(15)" style="shape=partialRectangle;connectable=0;fillColor=none;top=0;left=0;bottom=0;right=0;align=left;spacingLeft=6;overflow=hidden;whiteSpace=wrap;html=1;fontSize=16;labelBackgroundColor=none;strokeColor=#D0CEE2;fontColor=#1A1A1A;" parent="PCRB14Bkoi_nJQecKA2T-57" vertex="1">
          <mxGeometry x="80" width="320" height="40" as="geometry">
            <mxRectangle width="320" height="40" as="alternateBounds" />
          </mxGeometry>
        </mxCell>
        <mxCell id="PCRB14Bkoi_nJQecKA2T-60" value="" style="shape=tableRow;horizontal=0;startSize=0;swimlaneHead=0;swimlaneBody=0;fillColor=none;collapsible=0;dropTarget=0;points=[[0,0.5],[1,0.5]];portConstraint=eastwest;top=0;left=0;right=0;bottom=0;fontSize=16;labelBackgroundColor=none;strokeColor=#D0CEE2;fontColor=#1A1A1A;" parent="PCRB14Bkoi_nJQecKA2T-47" vertex="1">
          <mxGeometry y="190" width="400" height="40" as="geometry" />
        </mxCell>
        <mxCell id="PCRB14Bkoi_nJQecKA2T-61" value="" style="shape=partialRectangle;connectable=0;fillColor=none;top=0;left=0;bottom=0;right=0;editable=1;overflow=hidden;whiteSpace=wrap;html=1;fontSize=16;labelBackgroundColor=none;strokeColor=#D0CEE2;fontColor=#1A1A1A;" parent="PCRB14Bkoi_nJQecKA2T-60" vertex="1">
          <mxGeometry width="80" height="40" as="geometry">
            <mxRectangle width="80" height="40" as="alternateBounds" />
          </mxGeometry>
        </mxCell>
        <mxCell id="PCRB14Bkoi_nJQecKA2T-62" value="subj_postCode INT NOT NULL" style="shape=partialRectangle;connectable=0;fillColor=none;top=0;left=0;bottom=0;right=0;align=left;spacingLeft=6;overflow=hidden;whiteSpace=wrap;html=1;fontSize=16;labelBackgroundColor=none;strokeColor=#D0CEE2;fontColor=#1A1A1A;" parent="PCRB14Bkoi_nJQecKA2T-60" vertex="1">
          <mxGeometry x="80" width="320" height="40" as="geometry">
            <mxRectangle width="320" height="40" as="alternateBounds" />
          </mxGeometry>
        </mxCell>
        <mxCell id="PCRB14Bkoi_nJQecKA2T-63" value="" style="shape=tableRow;horizontal=0;startSize=0;swimlaneHead=0;swimlaneBody=0;fillColor=none;collapsible=0;dropTarget=0;points=[[0,0.5],[1,0.5]];portConstraint=eastwest;top=0;left=0;right=0;bottom=0;fontSize=16;labelBackgroundColor=none;strokeColor=#D0CEE2;fontColor=#1A1A1A;" parent="PCRB14Bkoi_nJQecKA2T-47" vertex="1">
          <mxGeometry y="230" width="400" height="40" as="geometry" />
        </mxCell>
        <mxCell id="PCRB14Bkoi_nJQecKA2T-64" value="" style="shape=partialRectangle;connectable=0;fillColor=none;top=0;left=0;bottom=0;right=0;editable=1;overflow=hidden;whiteSpace=wrap;html=1;fontSize=16;labelBackgroundColor=none;strokeColor=#D0CEE2;fontColor=#1A1A1A;" parent="PCRB14Bkoi_nJQecKA2T-63" vertex="1">
          <mxGeometry width="80" height="40" as="geometry">
            <mxRectangle width="80" height="40" as="alternateBounds" />
          </mxGeometry>
        </mxCell>
        <mxCell id="PCRB14Bkoi_nJQecKA2T-65" value="subj_ST VARCHAR(20) NOT NULL" style="shape=partialRectangle;connectable=0;fillColor=none;top=0;left=0;bottom=0;right=0;align=left;spacingLeft=6;overflow=hidden;whiteSpace=wrap;html=1;fontSize=16;labelBackgroundColor=none;strokeColor=#D0CEE2;fontColor=#1A1A1A;" parent="PCRB14Bkoi_nJQecKA2T-63" vertex="1">
          <mxGeometry x="80" width="320" height="40" as="geometry">
            <mxRectangle width="320" height="40" as="alternateBounds" />
          </mxGeometry>
        </mxCell>
        <mxCell id="PCRB14Bkoi_nJQecKA2T-66" value="" style="shape=tableRow;horizontal=0;startSize=0;swimlaneHead=0;swimlaneBody=0;fillColor=none;collapsible=0;dropTarget=0;points=[[0,0.5],[1,0.5]];portConstraint=eastwest;top=0;left=0;right=0;bottom=0;fontSize=16;labelBackgroundColor=none;strokeColor=#D0CEE2;fontColor=#1A1A1A;" parent="PCRB14Bkoi_nJQecKA2T-47" vertex="1">
          <mxGeometry y="270" width="400" height="40" as="geometry" />
        </mxCell>
        <mxCell id="PCRB14Bkoi_nJQecKA2T-67" value="" style="shape=partialRectangle;connectable=0;fillColor=none;top=0;left=0;bottom=0;right=0;editable=1;overflow=hidden;whiteSpace=wrap;html=1;fontSize=16;labelBackgroundColor=none;strokeColor=#D0CEE2;fontColor=#1A1A1A;" parent="PCRB14Bkoi_nJQecKA2T-66" vertex="1">
          <mxGeometry width="80" height="40" as="geometry">
            <mxRectangle width="80" height="40" as="alternateBounds" />
          </mxGeometry>
        </mxCell>
        <mxCell id="PCRB14Bkoi_nJQecKA2T-68" value="subj_CN VARCHAR(20) NOT NULL" style="shape=partialRectangle;connectable=0;fillColor=none;top=0;left=0;bottom=0;right=0;align=left;spacingLeft=6;overflow=hidden;whiteSpace=wrap;html=1;fontSize=16;labelBackgroundColor=none;strokeColor=#D0CEE2;fontColor=#1A1A1A;" parent="PCRB14Bkoi_nJQecKA2T-66" vertex="1">
          <mxGeometry x="80" width="320" height="40" as="geometry">
            <mxRectangle width="320" height="40" as="alternateBounds" />
          </mxGeometry>
        </mxCell>
        <mxCell id="PCRB14Bkoi_nJQecKA2T-69" value="" style="shape=tableRow;horizontal=0;startSize=0;swimlaneHead=0;swimlaneBody=0;fillColor=none;collapsible=0;dropTarget=0;points=[[0,0.5],[1,0.5]];portConstraint=eastwest;top=0;left=0;right=0;bottom=0;fontSize=16;labelBackgroundColor=none;strokeColor=#D0CEE2;fontColor=#1A1A1A;" parent="PCRB14Bkoi_nJQecKA2T-47" vertex="1">
          <mxGeometry y="310" width="400" height="40" as="geometry" />
        </mxCell>
        <mxCell id="PCRB14Bkoi_nJQecKA2T-70" value="" style="shape=partialRectangle;connectable=0;fillColor=none;top=0;left=0;bottom=0;right=0;editable=1;overflow=hidden;whiteSpace=wrap;html=1;fontSize=16;labelBackgroundColor=none;strokeColor=#D0CEE2;fontColor=#1A1A1A;" parent="PCRB14Bkoi_nJQecKA2T-69" vertex="1">
          <mxGeometry width="80" height="40" as="geometry">
            <mxRectangle width="80" height="40" as="alternateBounds" />
          </mxGeometry>
        </mxCell>
        <mxCell id="PCRB14Bkoi_nJQecKA2T-71" value="subj_OU VARCHAR(20)" style="shape=partialRectangle;connectable=0;fillColor=none;top=0;left=0;bottom=0;right=0;align=left;spacingLeft=6;overflow=hidden;whiteSpace=wrap;html=1;fontSize=16;labelBackgroundColor=none;strokeColor=#D0CEE2;fontColor=#1A1A1A;" parent="PCRB14Bkoi_nJQecKA2T-69" vertex="1">
          <mxGeometry x="80" width="320" height="40" as="geometry">
            <mxRectangle width="320" height="40" as="alternateBounds" />
          </mxGeometry>
        </mxCell>
        <mxCell id="sTGas-mFVDPfC52rBdnj-196" value="" style="shape=tableRow;horizontal=0;startSize=0;swimlaneHead=0;swimlaneBody=0;fillColor=none;collapsible=0;dropTarget=0;points=[[0,0.5],[1,0.5]];portConstraint=eastwest;top=0;left=0;right=0;bottom=0;fontSize=16;labelBackgroundColor=none;strokeColor=#D0CEE2;fontColor=#1A1A1A;" parent="PCRB14Bkoi_nJQecKA2T-47" vertex="1">
          <mxGeometry y="350" width="400" height="40" as="geometry" />
        </mxCell>
        <mxCell id="sTGas-mFVDPfC52rBdnj-197" value="UNIQUE" style="shape=partialRectangle;connectable=0;fillColor=none;top=0;left=0;bottom=0;right=0;editable=1;overflow=hidden;whiteSpace=wrap;html=1;fontSize=16;labelBackgroundColor=none;strokeColor=#D0CEE2;fontColor=#1A1A1A;" parent="sTGas-mFVDPfC52rBdnj-196" vertex="1">
          <mxGeometry width="80" height="40" as="geometry">
            <mxRectangle width="80" height="40" as="alternateBounds" />
          </mxGeometry>
        </mxCell>
        <mxCell id="sTGas-mFVDPfC52rBdnj-198" value="subj_Email VARCHAR(50) NOT NULL" style="shape=partialRectangle;connectable=0;fillColor=none;top=0;left=0;bottom=0;right=0;align=left;spacingLeft=6;overflow=hidden;whiteSpace=wrap;html=1;fontSize=16;labelBackgroundColor=none;strokeColor=#D0CEE2;fontColor=#1A1A1A;" parent="sTGas-mFVDPfC52rBdnj-196" vertex="1">
          <mxGeometry x="80" width="320" height="40" as="geometry">
            <mxRectangle width="320" height="40" as="alternateBounds" />
          </mxGeometry>
        </mxCell>
        <mxCell id="PCRB14Bkoi_nJQecKA2T-72" value="Issuer" style="shape=table;startSize=30;container=1;collapsible=1;childLayout=tableLayout;fixedRows=1;rowLines=0;fontStyle=1;align=center;resizeLast=1;html=1;fontSize=16;labelBackgroundColor=none;fillColor=#5D7F99;fontColor=#1A1A1A;strokeColor=#D0CEE2;" parent="1" vertex="1">
          <mxGeometry x="-2418" y="-2087" width="398" height="257" as="geometry" />
        </mxCell>
        <mxCell id="PCRB14Bkoi_nJQecKA2T-73" value="" style="shape=tableRow;horizontal=0;startSize=0;swimlaneHead=0;swimlaneBody=0;fillColor=none;collapsible=0;dropTarget=0;points=[[0,0.5],[1,0.5]];portConstraint=eastwest;top=0;left=0;right=0;bottom=1;fontSize=16;labelBackgroundColor=none;strokeColor=#D0CEE2;fontColor=#1A1A1A;" parent="PCRB14Bkoi_nJQecKA2T-72" vertex="1">
          <mxGeometry y="30" width="398" height="47" as="geometry" />
        </mxCell>
        <mxCell id="PCRB14Bkoi_nJQecKA2T-74" value="PK" style="shape=partialRectangle;connectable=0;fillColor=none;top=0;left=0;bottom=0;right=0;fontStyle=1;overflow=hidden;whiteSpace=wrap;html=1;fontSize=16;labelBackgroundColor=none;strokeColor=#D0CEE2;fontColor=#1A1A1A;" parent="PCRB14Bkoi_nJQecKA2T-73" vertex="1">
          <mxGeometry width="80" height="47" as="geometry">
            <mxRectangle width="80" height="47" as="alternateBounds" />
          </mxGeometry>
        </mxCell>
        <mxCell id="PCRB14Bkoi_nJQecKA2T-75" value="issuer_id VARCHAR (20) PRIMARY KEY" style="shape=partialRectangle;connectable=0;fillColor=none;top=0;left=0;bottom=0;right=0;align=left;spacingLeft=6;fontStyle=5;overflow=hidden;whiteSpace=wrap;html=1;fontSize=16;labelBackgroundColor=none;strokeColor=#D0CEE2;fontColor=#1A1A1A;" parent="PCRB14Bkoi_nJQecKA2T-73" vertex="1">
          <mxGeometry x="80" width="318" height="47" as="geometry">
            <mxRectangle width="318" height="47" as="alternateBounds" />
          </mxGeometry>
        </mxCell>
        <mxCell id="PCRB14Bkoi_nJQecKA2T-76" value="" style="shape=tableRow;horizontal=0;startSize=0;swimlaneHead=0;swimlaneBody=0;fillColor=none;collapsible=0;dropTarget=0;points=[[0,0.5],[1,0.5]];portConstraint=eastwest;top=0;left=0;right=0;bottom=0;fontSize=16;labelBackgroundColor=none;strokeColor=#D0CEE2;fontColor=#1A1A1A;" parent="PCRB14Bkoi_nJQecKA2T-72" vertex="1">
          <mxGeometry y="77" width="398" height="40" as="geometry" />
        </mxCell>
        <mxCell id="PCRB14Bkoi_nJQecKA2T-77" value="" style="shape=partialRectangle;connectable=0;fillColor=none;top=0;left=0;bottom=0;right=0;editable=1;overflow=hidden;whiteSpace=wrap;html=1;fontSize=16;labelBackgroundColor=none;strokeColor=#D0CEE2;fontColor=#1A1A1A;" parent="PCRB14Bkoi_nJQecKA2T-76" vertex="1">
          <mxGeometry width="80" height="40" as="geometry">
            <mxRectangle width="80" height="40" as="alternateBounds" />
          </mxGeometry>
        </mxCell>
        <mxCell id="PCRB14Bkoi_nJQecKA2T-78" value="issuer_C VARCHAR(15) NOT NULL" style="shape=partialRectangle;connectable=0;fillColor=none;top=0;left=0;bottom=0;right=0;align=left;spacingLeft=6;overflow=hidden;whiteSpace=wrap;html=1;fontSize=16;labelBackgroundColor=none;strokeColor=#D0CEE2;fontColor=#1A1A1A;" parent="PCRB14Bkoi_nJQecKA2T-76" vertex="1">
          <mxGeometry x="80" width="318" height="40" as="geometry">
            <mxRectangle width="318" height="40" as="alternateBounds" />
          </mxGeometry>
        </mxCell>
        <mxCell id="PCRB14Bkoi_nJQecKA2T-79" value="" style="shape=tableRow;horizontal=0;startSize=0;swimlaneHead=0;swimlaneBody=0;fillColor=none;collapsible=0;dropTarget=0;points=[[0,0.5],[1,0.5]];portConstraint=eastwest;top=0;left=0;right=0;bottom=0;fontSize=16;labelBackgroundColor=none;strokeColor=#D0CEE2;fontColor=#1A1A1A;" parent="PCRB14Bkoi_nJQecKA2T-72" vertex="1">
          <mxGeometry y="117" width="398" height="50" as="geometry" />
        </mxCell>
        <mxCell id="PCRB14Bkoi_nJQecKA2T-80" value="" style="shape=partialRectangle;connectable=0;fillColor=none;top=0;left=0;bottom=0;right=0;editable=1;overflow=hidden;whiteSpace=wrap;html=1;fontSize=16;labelBackgroundColor=none;strokeColor=#D0CEE2;fontColor=#1A1A1A;" parent="PCRB14Bkoi_nJQecKA2T-79" vertex="1">
          <mxGeometry width="80" height="50" as="geometry">
            <mxRectangle width="80" height="50" as="alternateBounds" />
          </mxGeometry>
        </mxCell>
        <mxCell id="PCRB14Bkoi_nJQecKA2T-81" value="issuer_O VARCHAR(255) NOT NULL" style="shape=partialRectangle;connectable=0;fillColor=none;top=0;left=0;bottom=0;right=0;align=left;spacingLeft=6;overflow=hidden;whiteSpace=wrap;html=1;fontSize=16;labelBackgroundColor=none;strokeColor=#D0CEE2;fontColor=#1A1A1A;" parent="PCRB14Bkoi_nJQecKA2T-79" vertex="1">
          <mxGeometry x="80" width="318" height="50" as="geometry">
            <mxRectangle width="318" height="50" as="alternateBounds" />
          </mxGeometry>
        </mxCell>
        <mxCell id="PCRB14Bkoi_nJQecKA2T-82" value="" style="shape=tableRow;horizontal=0;startSize=0;swimlaneHead=0;swimlaneBody=0;fillColor=none;collapsible=0;dropTarget=0;points=[[0,0.5],[1,0.5]];portConstraint=eastwest;top=0;left=0;right=0;bottom=0;fontSize=16;labelBackgroundColor=none;strokeColor=#D0CEE2;fontColor=#1A1A1A;" parent="PCRB14Bkoi_nJQecKA2T-72" vertex="1">
          <mxGeometry y="167" width="398" height="40" as="geometry" />
        </mxCell>
        <mxCell id="PCRB14Bkoi_nJQecKA2T-83" value="" style="shape=partialRectangle;connectable=0;fillColor=none;top=0;left=0;bottom=0;right=0;editable=1;overflow=hidden;whiteSpace=wrap;html=1;fontSize=16;labelBackgroundColor=none;strokeColor=#D0CEE2;fontColor=#1A1A1A;" parent="PCRB14Bkoi_nJQecKA2T-82" vertex="1">
          <mxGeometry width="80" height="40" as="geometry">
            <mxRectangle width="80" height="40" as="alternateBounds" />
          </mxGeometry>
        </mxCell>
        <mxCell id="PCRB14Bkoi_nJQecKA2T-84" value="issuer_OU VARCHAR(255) NOT NULL" style="shape=partialRectangle;connectable=0;fillColor=none;top=0;left=0;bottom=0;right=0;align=left;spacingLeft=6;overflow=hidden;whiteSpace=wrap;html=1;fontSize=16;labelBackgroundColor=none;strokeColor=#D0CEE2;fontColor=#1A1A1A;" parent="PCRB14Bkoi_nJQecKA2T-82" vertex="1">
          <mxGeometry x="80" width="318" height="40" as="geometry">
            <mxRectangle width="318" height="40" as="alternateBounds" />
          </mxGeometry>
        </mxCell>
        <mxCell id="PCRB14Bkoi_nJQecKA2T-85" value="" style="shape=tableRow;horizontal=0;startSize=0;swimlaneHead=0;swimlaneBody=0;fillColor=none;collapsible=0;dropTarget=0;points=[[0,0.5],[1,0.5]];portConstraint=eastwest;top=0;left=0;right=0;bottom=0;fontSize=16;labelBackgroundColor=none;strokeColor=#D0CEE2;fontColor=#1A1A1A;" parent="PCRB14Bkoi_nJQecKA2T-72" vertex="1">
          <mxGeometry y="207" width="398" height="50" as="geometry" />
        </mxCell>
        <mxCell id="PCRB14Bkoi_nJQecKA2T-86" value="" style="shape=partialRectangle;connectable=0;fillColor=none;top=0;left=0;bottom=0;right=0;editable=1;overflow=hidden;whiteSpace=wrap;html=1;fontSize=16;labelBackgroundColor=none;strokeColor=#D0CEE2;fontColor=#1A1A1A;" parent="PCRB14Bkoi_nJQecKA2T-85" vertex="1">
          <mxGeometry width="80" height="50" as="geometry">
            <mxRectangle width="80" height="50" as="alternateBounds" />
          </mxGeometry>
        </mxCell>
        <mxCell id="PCRB14Bkoi_nJQecKA2T-87" value="issuer_CN VARCHAR(255) NOT NULL" style="shape=partialRectangle;connectable=0;fillColor=none;top=0;left=0;bottom=0;right=0;align=left;spacingLeft=6;overflow=hidden;whiteSpace=wrap;html=1;fontSize=16;labelBackgroundColor=none;strokeColor=#D0CEE2;fontColor=#1A1A1A;" parent="PCRB14Bkoi_nJQecKA2T-85" vertex="1">
          <mxGeometry x="80" width="318" height="50" as="geometry">
            <mxRectangle width="318" height="50" as="alternateBounds" />
          </mxGeometry>
        </mxCell>
        <mxCell id="PCRB14Bkoi_nJQecKA2T-191" value="Login" style="shape=table;startSize=30;container=1;collapsible=1;childLayout=tableLayout;fixedRows=1;rowLines=0;fontStyle=1;align=center;resizeLast=1;html=1;fontSize=16;labelBackgroundColor=none;fillColor=#5D7F99;strokeColor=#D0CEE2;fontColor=#1A1A1A;" parent="1" vertex="1">
          <mxGeometry x="-2418" y="-2520" width="430" height="239" as="geometry" />
        </mxCell>
        <mxCell id="PCRB14Bkoi_nJQecKA2T-192" value="" style="shape=tableRow;horizontal=0;startSize=0;swimlaneHead=0;swimlaneBody=0;fillColor=none;collapsible=0;dropTarget=0;points=[[0,0.5],[1,0.5]];portConstraint=eastwest;top=0;left=0;right=0;bottom=1;fontSize=16;labelBackgroundColor=none;strokeColor=#D0CEE2;fontColor=#1A1A1A;" parent="PCRB14Bkoi_nJQecKA2T-191" vertex="1">
          <mxGeometry y="30" width="430" height="40" as="geometry" />
        </mxCell>
        <mxCell id="PCRB14Bkoi_nJQecKA2T-193" value="PK" style="shape=partialRectangle;connectable=0;fillColor=none;top=0;left=0;bottom=0;right=0;fontStyle=1;overflow=hidden;whiteSpace=wrap;html=1;fontSize=16;labelBackgroundColor=none;strokeColor=#D0CEE2;fontColor=#1A1A1A;" parent="PCRB14Bkoi_nJQecKA2T-192" vertex="1">
          <mxGeometry width="80" height="40" as="geometry">
            <mxRectangle width="80" height="40" as="alternateBounds" />
          </mxGeometry>
        </mxCell>
        <mxCell id="PCRB14Bkoi_nJQecKA2T-194" value="login_id&amp;nbsp; VARCHAR (50) PRIMARY KEY" style="shape=partialRectangle;connectable=0;fillColor=none;top=0;left=0;bottom=0;right=0;align=left;spacingLeft=6;fontStyle=5;overflow=hidden;whiteSpace=wrap;html=1;fontSize=16;labelBackgroundColor=none;strokeColor=#D0CEE2;fontColor=#1A1A1A;" parent="PCRB14Bkoi_nJQecKA2T-192" vertex="1">
          <mxGeometry x="80" width="350" height="40" as="geometry">
            <mxRectangle width="350" height="40" as="alternateBounds" />
          </mxGeometry>
        </mxCell>
        <mxCell id="PCRB14Bkoi_nJQecKA2T-195" value="" style="shape=tableRow;horizontal=0;startSize=0;swimlaneHead=0;swimlaneBody=0;fillColor=none;collapsible=0;dropTarget=0;points=[[0,0.5],[1,0.5]];portConstraint=eastwest;top=0;left=0;right=0;bottom=0;fontSize=16;labelBackgroundColor=none;strokeColor=#D0CEE2;fontColor=#1A1A1A;" parent="PCRB14Bkoi_nJQecKA2T-191" vertex="1">
          <mxGeometry y="70" width="430" height="40" as="geometry" />
        </mxCell>
        <mxCell id="PCRB14Bkoi_nJQecKA2T-196" value="" style="shape=partialRectangle;connectable=0;fillColor=none;top=0;left=0;bottom=0;right=0;editable=1;overflow=hidden;whiteSpace=wrap;html=1;fontSize=16;labelBackgroundColor=none;strokeColor=#D0CEE2;fontColor=#1A1A1A;" parent="PCRB14Bkoi_nJQecKA2T-195" vertex="1">
          <mxGeometry width="80" height="40" as="geometry">
            <mxRectangle width="80" height="40" as="alternateBounds" />
          </mxGeometry>
        </mxCell>
        <mxCell id="PCRB14Bkoi_nJQecKA2T-197" value="password&amp;nbsp; VARCHAR (20) NOT NULL" style="shape=partialRectangle;connectable=0;fillColor=none;top=0;left=0;bottom=0;right=0;align=left;spacingLeft=6;overflow=hidden;whiteSpace=wrap;html=1;fontSize=16;labelBackgroundColor=none;strokeColor=#D0CEE2;fontColor=#1A1A1A;" parent="PCRB14Bkoi_nJQecKA2T-195" vertex="1">
          <mxGeometry x="80" width="350" height="40" as="geometry">
            <mxRectangle width="350" height="40" as="alternateBounds" />
          </mxGeometry>
        </mxCell>
        <mxCell id="PCRB14Bkoi_nJQecKA2T-198" value="" style="shape=tableRow;horizontal=0;startSize=0;swimlaneHead=0;swimlaneBody=0;fillColor=none;collapsible=0;dropTarget=0;points=[[0,0.5],[1,0.5]];portConstraint=eastwest;top=0;left=0;right=0;bottom=0;fontSize=16;labelBackgroundColor=none;strokeColor=#D0CEE2;fontColor=#1A1A1A;" parent="PCRB14Bkoi_nJQecKA2T-191" vertex="1">
          <mxGeometry y="110" width="430" height="40" as="geometry" />
        </mxCell>
        <mxCell id="PCRB14Bkoi_nJQecKA2T-199" value="" style="shape=partialRectangle;connectable=0;fillColor=none;top=0;left=0;bottom=0;right=0;editable=1;overflow=hidden;whiteSpace=wrap;html=1;fontSize=16;labelBackgroundColor=none;strokeColor=#D0CEE2;fontColor=#1A1A1A;" parent="PCRB14Bkoi_nJQecKA2T-198" vertex="1">
          <mxGeometry width="80" height="40" as="geometry">
            <mxRectangle width="80" height="40" as="alternateBounds" />
          </mxGeometry>
        </mxCell>
        <mxCell id="PCRB14Bkoi_nJQecKA2T-200" value="role VARCHAR (50) NOT NULL" style="shape=partialRectangle;connectable=0;fillColor=none;top=0;left=0;bottom=0;right=0;align=left;spacingLeft=6;overflow=hidden;whiteSpace=wrap;html=1;fontSize=16;labelBackgroundColor=none;strokeColor=#D0CEE2;fontColor=#1A1A1A;" parent="PCRB14Bkoi_nJQecKA2T-198" vertex="1">
          <mxGeometry x="80" width="350" height="40" as="geometry">
            <mxRectangle width="350" height="40" as="alternateBounds" />
          </mxGeometry>
        </mxCell>
        <mxCell id="sTGas-mFVDPfC52rBdnj-173" value="" style="shape=tableRow;horizontal=0;startSize=0;swimlaneHead=0;swimlaneBody=0;fillColor=none;collapsible=0;dropTarget=0;points=[[0,0.5],[1,0.5]];portConstraint=eastwest;top=0;left=0;right=0;bottom=0;fontSize=16;labelBackgroundColor=none;strokeColor=#D0CEE2;fontColor=#1A1A1A;" parent="PCRB14Bkoi_nJQecKA2T-191" vertex="1">
          <mxGeometry y="150" width="430" height="40" as="geometry" />
        </mxCell>
        <mxCell id="sTGas-mFVDPfC52rBdnj-174" value="FK" style="shape=partialRectangle;connectable=0;fillColor=none;top=0;left=0;bottom=0;right=0;editable=1;overflow=hidden;whiteSpace=wrap;html=1;fontSize=16;labelBackgroundColor=none;strokeColor=#D0CEE2;fontColor=#1A1A1A;" parent="sTGas-mFVDPfC52rBdnj-173" vertex="1">
          <mxGeometry width="80" height="40" as="geometry">
            <mxRectangle width="80" height="40" as="alternateBounds" />
          </mxGeometry>
        </mxCell>
        <mxCell id="sTGas-mFVDPfC52rBdnj-175" value="issuer_id " style="shape=partialRectangle;connectable=0;fillColor=none;top=0;left=0;bottom=0;right=0;align=left;spacingLeft=6;overflow=hidden;whiteSpace=wrap;html=1;fontSize=16;labelBackgroundColor=none;strokeColor=#D0CEE2;fontColor=#1A1A1A;" parent="sTGas-mFVDPfC52rBdnj-173" vertex="1">
          <mxGeometry x="80" width="350" height="40" as="geometry">
            <mxRectangle width="350" height="40" as="alternateBounds" />
          </mxGeometry>
        </mxCell>
        <mxCell id="PCRB14Bkoi_nJQecKA2T-201" value="" style="shape=tableRow;horizontal=0;startSize=0;swimlaneHead=0;swimlaneBody=0;fillColor=none;collapsible=0;dropTarget=0;points=[[0,0.5],[1,0.5]];portConstraint=eastwest;top=0;left=0;right=0;bottom=0;fontSize=16;labelBackgroundColor=none;strokeColor=#D0CEE2;fontColor=#1A1A1A;" parent="PCRB14Bkoi_nJQecKA2T-191" vertex="1">
          <mxGeometry y="190" width="430" height="40" as="geometry" />
        </mxCell>
        <mxCell id="PCRB14Bkoi_nJQecKA2T-202" value="UNIQUE" style="shape=partialRectangle;connectable=0;fillColor=none;top=0;left=0;bottom=0;right=0;editable=1;overflow=hidden;whiteSpace=wrap;html=1;fontSize=16;labelBackgroundColor=none;strokeColor=#D0CEE2;fontColor=#1A1A1A;" parent="PCRB14Bkoi_nJQecKA2T-201" vertex="1">
          <mxGeometry width="80" height="40" as="geometry">
            <mxRectangle width="80" height="40" as="alternateBounds" />
          </mxGeometry>
        </mxCell>
        <mxCell id="PCRB14Bkoi_nJQecKA2T-203" value="username VARCHAR (20) NOT NULL" style="shape=partialRectangle;connectable=0;fillColor=none;top=0;left=0;bottom=0;right=0;align=left;spacingLeft=6;overflow=hidden;whiteSpace=wrap;html=1;fontSize=16;labelBackgroundColor=none;strokeColor=#D0CEE2;fontColor=#1A1A1A;" parent="PCRB14Bkoi_nJQecKA2T-201" vertex="1">
          <mxGeometry x="80" width="350" height="40" as="geometry">
            <mxRectangle width="350" height="40" as="alternateBounds" />
          </mxGeometry>
        </mxCell>
        <mxCell id="PCRB14Bkoi_nJQecKA2T-204" value="Audit Trail" style="shape=table;startSize=30;container=1;collapsible=1;childLayout=tableLayout;fixedRows=1;rowLines=0;fontStyle=1;align=center;resizeLast=1;html=1;fontSize=16;labelBackgroundColor=none;fillColor=#5D7F99;fontColor=#1A1A1A;strokeColor=#D0CEE2;" parent="1" vertex="1">
          <mxGeometry x="-1560" y="-2770" width="390" height="420" as="geometry" />
        </mxCell>
        <mxCell id="PCRB14Bkoi_nJQecKA2T-205" value="" style="shape=tableRow;horizontal=0;startSize=0;swimlaneHead=0;swimlaneBody=0;fillColor=none;collapsible=0;dropTarget=0;points=[[0,0.5],[1,0.5]];portConstraint=eastwest;top=0;left=0;right=0;bottom=1;fontSize=16;labelBackgroundColor=none;strokeColor=#D0CEE2;fontColor=#1A1A1A;" parent="PCRB14Bkoi_nJQecKA2T-204" vertex="1">
          <mxGeometry y="30" width="390" height="40" as="geometry" />
        </mxCell>
        <mxCell id="PCRB14Bkoi_nJQecKA2T-206" value="PK" style="shape=partialRectangle;connectable=0;fillColor=none;top=0;left=0;bottom=0;right=0;fontStyle=1;overflow=hidden;whiteSpace=wrap;html=1;fontSize=16;labelBackgroundColor=none;strokeColor=#D0CEE2;fontColor=#1A1A1A;" parent="PCRB14Bkoi_nJQecKA2T-205" vertex="1">
          <mxGeometry width="70" height="40" as="geometry">
            <mxRectangle width="70" height="40" as="alternateBounds" />
          </mxGeometry>
        </mxCell>
        <mxCell id="PCRB14Bkoi_nJQecKA2T-207" value="Audit_trail_srNo INT PRIMARY KEY" style="shape=partialRectangle;connectable=0;fillColor=none;top=0;left=0;bottom=0;right=0;align=left;spacingLeft=6;fontStyle=5;overflow=hidden;whiteSpace=wrap;html=1;fontSize=16;labelBackgroundColor=none;strokeColor=#D0CEE2;fontColor=#1A1A1A;" parent="PCRB14Bkoi_nJQecKA2T-205" vertex="1">
          <mxGeometry x="70" width="320" height="40" as="geometry">
            <mxRectangle width="320" height="40" as="alternateBounds" />
          </mxGeometry>
        </mxCell>
        <mxCell id="PCRB14Bkoi_nJQecKA2T-208" value="" style="shape=tableRow;horizontal=0;startSize=0;swimlaneHead=0;swimlaneBody=0;fillColor=none;collapsible=0;dropTarget=0;points=[[0,0.5],[1,0.5]];portConstraint=eastwest;top=0;left=0;right=0;bottom=0;fontSize=16;labelBackgroundColor=none;strokeColor=#D0CEE2;fontColor=#1A1A1A;" parent="PCRB14Bkoi_nJQecKA2T-204" vertex="1">
          <mxGeometry y="70" width="390" height="40" as="geometry" />
        </mxCell>
        <mxCell id="PCRB14Bkoi_nJQecKA2T-209" value="FK" style="shape=partialRectangle;connectable=0;fillColor=none;top=0;left=0;bottom=0;right=0;editable=1;overflow=hidden;whiteSpace=wrap;html=1;fontSize=16;labelBackgroundColor=none;strokeColor=#D0CEE2;fontColor=#1A1A1A;" parent="PCRB14Bkoi_nJQecKA2T-208" vertex="1">
          <mxGeometry width="70" height="40" as="geometry">
            <mxRectangle width="70" height="40" as="alternateBounds" />
          </mxGeometry>
        </mxCell>
        <mxCell id="PCRB14Bkoi_nJQecKA2T-210" value="login_id" style="shape=partialRectangle;connectable=0;fillColor=none;top=0;left=0;bottom=0;right=0;align=left;spacingLeft=6;overflow=hidden;whiteSpace=wrap;html=1;fontSize=16;labelBackgroundColor=none;strokeColor=#D0CEE2;fontColor=#1A1A1A;" parent="PCRB14Bkoi_nJQecKA2T-208" vertex="1">
          <mxGeometry x="70" width="320" height="40" as="geometry">
            <mxRectangle width="320" height="40" as="alternateBounds" />
          </mxGeometry>
        </mxCell>
        <mxCell id="PCRB14Bkoi_nJQecKA2T-375" value="" style="shape=tableRow;horizontal=0;startSize=0;swimlaneHead=0;swimlaneBody=0;fillColor=none;collapsible=0;dropTarget=0;points=[[0,0.5],[1,0.5]];portConstraint=eastwest;top=0;left=0;right=0;bottom=0;fontSize=16;labelBackgroundColor=none;strokeColor=#D0CEE2;fontColor=#1A1A1A;" parent="PCRB14Bkoi_nJQecKA2T-204" vertex="1">
          <mxGeometry y="110" width="390" height="40" as="geometry" />
        </mxCell>
        <mxCell id="PCRB14Bkoi_nJQecKA2T-376" value="" style="shape=partialRectangle;connectable=0;fillColor=none;top=0;left=0;bottom=0;right=0;editable=1;overflow=hidden;whiteSpace=wrap;html=1;fontSize=16;labelBackgroundColor=none;strokeColor=#D0CEE2;fontColor=#1A1A1A;" parent="PCRB14Bkoi_nJQecKA2T-375" vertex="1">
          <mxGeometry width="70" height="40" as="geometry">
            <mxRectangle width="70" height="40" as="alternateBounds" />
          </mxGeometry>
        </mxCell>
        <mxCell id="PCRB14Bkoi_nJQecKA2T-377" value="time_stamp DATETIME NOT NULL" style="shape=partialRectangle;connectable=0;fillColor=none;top=0;left=0;bottom=0;right=0;align=left;spacingLeft=6;overflow=hidden;whiteSpace=wrap;html=1;fontSize=16;labelBackgroundColor=none;strokeColor=#D0CEE2;fontColor=#1A1A1A;" parent="PCRB14Bkoi_nJQecKA2T-375" vertex="1">
          <mxGeometry x="70" width="320" height="40" as="geometry">
            <mxRectangle width="320" height="40" as="alternateBounds" />
          </mxGeometry>
        </mxCell>
        <mxCell id="PCRB14Bkoi_nJQecKA2T-364" value="" style="shape=tableRow;horizontal=0;startSize=0;swimlaneHead=0;swimlaneBody=0;fillColor=none;collapsible=0;dropTarget=0;points=[[0,0.5],[1,0.5]];portConstraint=eastwest;top=0;left=0;right=0;bottom=0;fontSize=16;labelBackgroundColor=none;strokeColor=#D0CEE2;fontColor=#1A1A1A;" parent="PCRB14Bkoi_nJQecKA2T-204" vertex="1">
          <mxGeometry y="150" width="390" height="40" as="geometry" />
        </mxCell>
        <mxCell id="PCRB14Bkoi_nJQecKA2T-365" value="" style="shape=partialRectangle;connectable=0;fillColor=none;top=0;left=0;bottom=0;right=0;editable=1;overflow=hidden;whiteSpace=wrap;html=1;fontSize=16;labelBackgroundColor=none;strokeColor=#D0CEE2;fontColor=#1A1A1A;" parent="PCRB14Bkoi_nJQecKA2T-364" vertex="1">
          <mxGeometry width="70" height="40" as="geometry">
            <mxRectangle width="70" height="40" as="alternateBounds" />
          </mxGeometry>
        </mxCell>
        <mxCell id="PCRB14Bkoi_nJQecKA2T-366" value="ip_address VARCHAR (40) NOT NULL" style="shape=partialRectangle;connectable=0;fillColor=none;top=0;left=0;bottom=0;right=0;align=left;spacingLeft=6;overflow=hidden;whiteSpace=wrap;html=1;fontSize=16;labelBackgroundColor=none;strokeColor=#D0CEE2;fontColor=#1A1A1A;" parent="PCRB14Bkoi_nJQecKA2T-364" vertex="1">
          <mxGeometry x="70" width="320" height="40" as="geometry">
            <mxRectangle width="320" height="40" as="alternateBounds" />
          </mxGeometry>
        </mxCell>
        <mxCell id="PCRB14Bkoi_nJQecKA2T-217" value="" style="shape=tableRow;horizontal=0;startSize=0;swimlaneHead=0;swimlaneBody=0;fillColor=none;collapsible=0;dropTarget=0;points=[[0,0.5],[1,0.5]];portConstraint=eastwest;top=0;left=0;right=0;bottom=0;fontSize=16;labelBackgroundColor=none;strokeColor=#D0CEE2;fontColor=#1A1A1A;" parent="PCRB14Bkoi_nJQecKA2T-204" vertex="1">
          <mxGeometry y="190" width="390" height="40" as="geometry" />
        </mxCell>
        <mxCell id="PCRB14Bkoi_nJQecKA2T-218" value="" style="shape=partialRectangle;connectable=0;fillColor=none;top=0;left=0;bottom=0;right=0;editable=1;overflow=hidden;whiteSpace=wrap;html=1;fontSize=16;labelBackgroundColor=none;strokeColor=#D0CEE2;fontColor=#1A1A1A;" parent="PCRB14Bkoi_nJQecKA2T-217" vertex="1">
          <mxGeometry width="70" height="40" as="geometry">
            <mxRectangle width="70" height="40" as="alternateBounds" />
          </mxGeometry>
        </mxCell>
        <mxCell id="PCRB14Bkoi_nJQecKA2T-219" value="action_type VARCHAR(255) NOT NULL" style="shape=partialRectangle;connectable=0;fillColor=none;top=0;left=0;bottom=0;right=0;align=left;spacingLeft=6;overflow=hidden;whiteSpace=wrap;html=1;fontSize=16;labelBackgroundColor=none;strokeColor=#D0CEE2;fontColor=#1A1A1A;" parent="PCRB14Bkoi_nJQecKA2T-217" vertex="1">
          <mxGeometry x="70" width="320" height="40" as="geometry">
            <mxRectangle width="320" height="40" as="alternateBounds" />
          </mxGeometry>
        </mxCell>
        <mxCell id="PCRB14Bkoi_nJQecKA2T-220" value="" style="shape=tableRow;horizontal=0;startSize=0;swimlaneHead=0;swimlaneBody=0;fillColor=none;collapsible=0;dropTarget=0;points=[[0,0.5],[1,0.5]];portConstraint=eastwest;top=0;left=0;right=0;bottom=0;fontSize=16;labelBackgroundColor=none;strokeColor=#D0CEE2;fontColor=#1A1A1A;" parent="PCRB14Bkoi_nJQecKA2T-204" vertex="1">
          <mxGeometry y="230" width="390" height="40" as="geometry" />
        </mxCell>
        <mxCell id="PCRB14Bkoi_nJQecKA2T-221" value="" style="shape=partialRectangle;connectable=0;fillColor=none;top=0;left=0;bottom=0;right=0;editable=1;overflow=hidden;whiteSpace=wrap;html=1;fontSize=16;labelBackgroundColor=none;strokeColor=#D0CEE2;fontColor=#1A1A1A;" parent="PCRB14Bkoi_nJQecKA2T-220" vertex="1">
          <mxGeometry width="70" height="40" as="geometry">
            <mxRectangle width="70" height="40" as="alternateBounds" />
          </mxGeometry>
        </mxCell>
        <mxCell id="PCRB14Bkoi_nJQecKA2T-222" value="remark VARCHAR(255) NOT NULL" style="shape=partialRectangle;connectable=0;fillColor=none;top=0;left=0;bottom=0;right=0;align=left;spacingLeft=6;overflow=hidden;whiteSpace=wrap;html=1;fontSize=16;labelBackgroundColor=none;strokeColor=#D0CEE2;fontColor=#1A1A1A;" parent="PCRB14Bkoi_nJQecKA2T-220" vertex="1">
          <mxGeometry x="70" width="320" height="40" as="geometry">
            <mxRectangle width="320" height="40" as="alternateBounds" />
          </mxGeometry>
        </mxCell>
        <mxCell id="PCRB14Bkoi_nJQecKA2T-358" value="" style="shape=tableRow;horizontal=0;startSize=0;swimlaneHead=0;swimlaneBody=0;fillColor=none;collapsible=0;dropTarget=0;points=[[0,0.5],[1,0.5]];portConstraint=eastwest;top=0;left=0;right=0;bottom=0;fontSize=16;labelBackgroundColor=none;strokeColor=#D0CEE2;fontColor=#1A1A1A;" parent="PCRB14Bkoi_nJQecKA2T-204" vertex="1">
          <mxGeometry y="270" width="390" height="40" as="geometry" />
        </mxCell>
        <mxCell id="PCRB14Bkoi_nJQecKA2T-359" value="" style="shape=partialRectangle;connectable=0;fillColor=none;top=0;left=0;bottom=0;right=0;editable=1;overflow=hidden;whiteSpace=wrap;html=1;fontSize=16;labelBackgroundColor=none;strokeColor=#D0CEE2;fontColor=#1A1A1A;" parent="PCRB14Bkoi_nJQecKA2T-358" vertex="1">
          <mxGeometry width="70" height="40" as="geometry">
            <mxRectangle width="70" height="40" as="alternateBounds" />
          </mxGeometry>
        </mxCell>
        <mxCell id="PCRB14Bkoi_nJQecKA2T-360" value="lattitude DECILMAL (9,6) NOT NULL" style="shape=partialRectangle;connectable=0;fillColor=none;top=0;left=0;bottom=0;right=0;align=left;spacingLeft=6;overflow=hidden;whiteSpace=wrap;html=1;fontSize=16;labelBackgroundColor=none;strokeColor=#D0CEE2;fontColor=#1A1A1A;" parent="PCRB14Bkoi_nJQecKA2T-358" vertex="1">
          <mxGeometry x="70" width="320" height="40" as="geometry">
            <mxRectangle width="320" height="40" as="alternateBounds" />
          </mxGeometry>
        </mxCell>
        <mxCell id="PCRB14Bkoi_nJQecKA2T-361" value="" style="shape=tableRow;horizontal=0;startSize=0;swimlaneHead=0;swimlaneBody=0;fillColor=none;collapsible=0;dropTarget=0;points=[[0,0.5],[1,0.5]];portConstraint=eastwest;top=0;left=0;right=0;bottom=0;fontSize=16;labelBackgroundColor=none;strokeColor=#D0CEE2;fontColor=#1A1A1A;" parent="PCRB14Bkoi_nJQecKA2T-204" vertex="1">
          <mxGeometry y="310" width="390" height="40" as="geometry" />
        </mxCell>
        <mxCell id="PCRB14Bkoi_nJQecKA2T-362" value="" style="shape=partialRectangle;connectable=0;fillColor=none;top=0;left=0;bottom=0;right=0;editable=1;overflow=hidden;whiteSpace=wrap;html=1;fontSize=16;labelBackgroundColor=none;strokeColor=#D0CEE2;fontColor=#1A1A1A;" parent="PCRB14Bkoi_nJQecKA2T-361" vertex="1">
          <mxGeometry width="70" height="40" as="geometry">
            <mxRectangle width="70" height="40" as="alternateBounds" />
          </mxGeometry>
        </mxCell>
        <mxCell id="PCRB14Bkoi_nJQecKA2T-363" value="longitude DECIMAL (9,6) NOT NULL" style="shape=partialRectangle;connectable=0;fillColor=none;top=0;left=0;bottom=0;right=0;align=left;spacingLeft=6;overflow=hidden;whiteSpace=wrap;html=1;fontSize=16;labelBackgroundColor=none;strokeColor=#D0CEE2;fontColor=#1A1A1A;" parent="PCRB14Bkoi_nJQecKA2T-361" vertex="1">
          <mxGeometry x="70" width="320" height="40" as="geometry">
            <mxRectangle width="320" height="40" as="alternateBounds" />
          </mxGeometry>
        </mxCell>
        <mxCell id="PCRB14Bkoi_nJQecKA2T-367" value="" style="shape=tableRow;horizontal=0;startSize=0;swimlaneHead=0;swimlaneBody=0;fillColor=none;collapsible=0;dropTarget=0;points=[[0,0.5],[1,0.5]];portConstraint=eastwest;top=0;left=0;right=0;bottom=0;fontSize=16;labelBackgroundColor=none;strokeColor=#D0CEE2;fontColor=#1A1A1A;" parent="PCRB14Bkoi_nJQecKA2T-204" vertex="1">
          <mxGeometry y="350" width="390" height="40" as="geometry" />
        </mxCell>
        <mxCell id="PCRB14Bkoi_nJQecKA2T-368" value="" style="shape=partialRectangle;connectable=0;fillColor=none;top=0;left=0;bottom=0;right=0;editable=1;overflow=hidden;whiteSpace=wrap;html=1;fontSize=16;labelBackgroundColor=none;strokeColor=#D0CEE2;fontColor=#1A1A1A;" parent="PCRB14Bkoi_nJQecKA2T-367" vertex="1">
          <mxGeometry width="70" height="40" as="geometry">
            <mxRectangle width="70" height="40" as="alternateBounds" />
          </mxGeometry>
        </mxCell>
        <mxCell id="PCRB14Bkoi_nJQecKA2T-369" value="login_place VARCHAR(20) NOT NULL" style="shape=partialRectangle;connectable=0;fillColor=none;top=0;left=0;bottom=0;right=0;align=left;spacingLeft=6;overflow=hidden;whiteSpace=wrap;html=1;fontSize=16;labelBackgroundColor=none;strokeColor=#D0CEE2;fontColor=#1A1A1A;" parent="PCRB14Bkoi_nJQecKA2T-367" vertex="1">
          <mxGeometry x="70" width="320" height="40" as="geometry">
            <mxRectangle width="320" height="40" as="alternateBounds" />
          </mxGeometry>
        </mxCell>
        <mxCell id="PCRB14Bkoi_nJQecKA2T-223" value="" style="shape=tableRow;horizontal=0;startSize=0;swimlaneHead=0;swimlaneBody=0;fillColor=none;collapsible=0;dropTarget=0;points=[[0,0.5],[1,0.5]];portConstraint=eastwest;top=0;left=0;right=0;bottom=0;fontSize=16;labelBackgroundColor=none;strokeColor=#D0CEE2;fontColor=#1A1A1A;" parent="PCRB14Bkoi_nJQecKA2T-204" vertex="1">
          <mxGeometry y="390" width="390" height="30" as="geometry" />
        </mxCell>
        <mxCell id="PCRB14Bkoi_nJQecKA2T-224" value="" style="shape=partialRectangle;connectable=0;fillColor=none;top=0;left=0;bottom=0;right=0;editable=1;overflow=hidden;whiteSpace=wrap;html=1;fontSize=16;labelBackgroundColor=none;strokeColor=#D0CEE2;fontColor=#1A1A1A;" parent="PCRB14Bkoi_nJQecKA2T-223" vertex="1">
          <mxGeometry width="70" height="30" as="geometry">
            <mxRectangle width="70" height="30" as="alternateBounds" />
          </mxGeometry>
        </mxCell>
        <mxCell id="PCRB14Bkoi_nJQecKA2T-225" value="" style="shape=partialRectangle;connectable=0;fillColor=none;top=0;left=0;bottom=0;right=0;align=left;spacingLeft=6;overflow=hidden;whiteSpace=wrap;html=1;fontSize=16;labelBackgroundColor=none;strokeColor=#D0CEE2;fontColor=#1A1A1A;" parent="PCRB14Bkoi_nJQecKA2T-223" vertex="1">
          <mxGeometry x="70" width="320" height="30" as="geometry">
            <mxRectangle width="320" height="30" as="alternateBounds" />
          </mxGeometry>
        </mxCell>
        <mxCell id="PCRB14Bkoi_nJQecKA2T-226" value="Certificate usage" style="shape=table;startSize=30;container=1;collapsible=1;childLayout=tableLayout;fixedRows=1;rowLines=0;fontStyle=1;align=center;resizeLast=1;html=1;fontSize=16;labelBackgroundColor=none;fillColor=#5D7F99;fontColor=#1A1A1A;strokeColor=#D0CEE2;" parent="1" vertex="1">
          <mxGeometry x="-480" y="-2250" width="270" height="150" as="geometry" />
        </mxCell>
        <mxCell id="PCRB14Bkoi_nJQecKA2T-227" value="" style="shape=tableRow;horizontal=0;startSize=0;swimlaneHead=0;swimlaneBody=0;fillColor=none;collapsible=0;dropTarget=0;points=[[0,0.5],[1,0.5]];portConstraint=eastwest;top=0;left=0;right=0;bottom=1;fontSize=16;labelBackgroundColor=none;strokeColor=#D0CEE2;fontColor=#1A1A1A;" parent="PCRB14Bkoi_nJQecKA2T-226" vertex="1">
          <mxGeometry y="30" width="270" height="30" as="geometry" />
        </mxCell>
        <mxCell id="PCRB14Bkoi_nJQecKA2T-228" value="PK" style="shape=partialRectangle;connectable=0;fillColor=none;top=0;left=0;bottom=0;right=0;fontStyle=1;overflow=hidden;whiteSpace=wrap;html=1;fontSize=16;labelBackgroundColor=none;strokeColor=#D0CEE2;fontColor=#1A1A1A;" parent="PCRB14Bkoi_nJQecKA2T-227" vertex="1">
          <mxGeometry width="50" height="30" as="geometry">
            <mxRectangle width="50" height="30" as="alternateBounds" />
          </mxGeometry>
        </mxCell>
        <mxCell id="PCRB14Bkoi_nJQecKA2T-229" value="serial_number" style="shape=partialRectangle;connectable=0;fillColor=none;top=0;left=0;bottom=0;right=0;align=left;spacingLeft=6;fontStyle=5;overflow=hidden;whiteSpace=wrap;html=1;fontSize=16;labelBackgroundColor=none;strokeColor=#D0CEE2;fontColor=#1A1A1A;" parent="PCRB14Bkoi_nJQecKA2T-227" vertex="1">
          <mxGeometry x="50" width="220" height="30" as="geometry">
            <mxRectangle width="220" height="30" as="alternateBounds" />
          </mxGeometry>
        </mxCell>
        <mxCell id="PCRB14Bkoi_nJQecKA2T-236" value="" style="shape=tableRow;horizontal=0;startSize=0;swimlaneHead=0;swimlaneBody=0;fillColor=none;collapsible=0;dropTarget=0;points=[[0,0.5],[1,0.5]];portConstraint=eastwest;top=0;left=0;right=0;bottom=0;fontSize=16;labelBackgroundColor=none;strokeColor=#D0CEE2;fontColor=#1A1A1A;" parent="PCRB14Bkoi_nJQecKA2T-226" vertex="1">
          <mxGeometry y="60" width="270" height="30" as="geometry" />
        </mxCell>
        <mxCell id="PCRB14Bkoi_nJQecKA2T-237" value="" style="shape=partialRectangle;connectable=0;fillColor=none;top=0;left=0;bottom=0;right=0;editable=1;overflow=hidden;whiteSpace=wrap;html=1;fontSize=16;labelBackgroundColor=none;strokeColor=#D0CEE2;fontColor=#1A1A1A;" parent="PCRB14Bkoi_nJQecKA2T-236" vertex="1">
          <mxGeometry width="50" height="30" as="geometry">
            <mxRectangle width="50" height="30" as="alternateBounds" />
          </mxGeometry>
        </mxCell>
        <mxCell id="PCRB14Bkoi_nJQecKA2T-238" value="time_stamp DATETIME" style="shape=partialRectangle;connectable=0;fillColor=none;top=0;left=0;bottom=0;right=0;align=left;spacingLeft=6;overflow=hidden;whiteSpace=wrap;html=1;fontSize=16;labelBackgroundColor=none;strokeColor=#D0CEE2;fontColor=#1A1A1A;" parent="PCRB14Bkoi_nJQecKA2T-236" vertex="1">
          <mxGeometry x="50" width="220" height="30" as="geometry">
            <mxRectangle width="220" height="30" as="alternateBounds" />
          </mxGeometry>
        </mxCell>
        <mxCell id="PCRB14Bkoi_nJQecKA2T-352" value="" style="shape=tableRow;horizontal=0;startSize=0;swimlaneHead=0;swimlaneBody=0;fillColor=none;collapsible=0;dropTarget=0;points=[[0,0.5],[1,0.5]];portConstraint=eastwest;top=0;left=0;right=0;bottom=0;fontSize=16;labelBackgroundColor=none;strokeColor=#D0CEE2;fontColor=#1A1A1A;" parent="PCRB14Bkoi_nJQecKA2T-226" vertex="1">
          <mxGeometry y="90" width="270" height="30" as="geometry" />
        </mxCell>
        <mxCell id="PCRB14Bkoi_nJQecKA2T-353" value="" style="shape=partialRectangle;connectable=0;fillColor=none;top=0;left=0;bottom=0;right=0;editable=1;overflow=hidden;whiteSpace=wrap;html=1;fontSize=16;labelBackgroundColor=none;strokeColor=#D0CEE2;fontColor=#1A1A1A;" parent="PCRB14Bkoi_nJQecKA2T-352" vertex="1">
          <mxGeometry width="50" height="30" as="geometry">
            <mxRectangle width="50" height="30" as="alternateBounds" />
          </mxGeometry>
        </mxCell>
        <mxCell id="PCRB14Bkoi_nJQecKA2T-354" value="remark VARCHAR (50)" style="shape=partialRectangle;connectable=0;fillColor=none;top=0;left=0;bottom=0;right=0;align=left;spacingLeft=6;overflow=hidden;whiteSpace=wrap;html=1;fontSize=16;labelBackgroundColor=none;strokeColor=#D0CEE2;fontColor=#1A1A1A;" parent="PCRB14Bkoi_nJQecKA2T-352" vertex="1">
          <mxGeometry x="50" width="220" height="30" as="geometry">
            <mxRectangle width="220" height="30" as="alternateBounds" />
          </mxGeometry>
        </mxCell>
        <mxCell id="sTGas-mFVDPfC52rBdnj-199" value="" style="shape=tableRow;horizontal=0;startSize=0;swimlaneHead=0;swimlaneBody=0;fillColor=none;collapsible=0;dropTarget=0;points=[[0,0.5],[1,0.5]];portConstraint=eastwest;top=0;left=0;right=0;bottom=0;fontSize=16;labelBackgroundColor=none;strokeColor=#D0CEE2;fontColor=#1A1A1A;" parent="PCRB14Bkoi_nJQecKA2T-226" vertex="1">
          <mxGeometry y="120" width="270" height="30" as="geometry" />
        </mxCell>
        <mxCell id="sTGas-mFVDPfC52rBdnj-200" value="" style="shape=partialRectangle;connectable=0;fillColor=none;top=0;left=0;bottom=0;right=0;editable=1;overflow=hidden;whiteSpace=wrap;html=1;fontSize=16;labelBackgroundColor=none;strokeColor=#D0CEE2;fontColor=#1A1A1A;" parent="sTGas-mFVDPfC52rBdnj-199" vertex="1">
          <mxGeometry width="50" height="30" as="geometry">
            <mxRectangle width="50" height="30" as="alternateBounds" />
          </mxGeometry>
        </mxCell>
        <mxCell id="sTGas-mFVDPfC52rBdnj-201" value="count INT" style="shape=partialRectangle;connectable=0;fillColor=none;top=0;left=0;bottom=0;right=0;align=left;spacingLeft=6;overflow=hidden;whiteSpace=wrap;html=1;fontSize=16;labelBackgroundColor=none;strokeColor=#D0CEE2;fontColor=#1A1A1A;" parent="sTGas-mFVDPfC52rBdnj-199" vertex="1">
          <mxGeometry x="50" width="220" height="30" as="geometry">
            <mxRectangle width="220" height="30" as="alternateBounds" />
          </mxGeometry>
        </mxCell>
        <mxCell id="PCRB14Bkoi_nJQecKA2T-239" value="Revocation Data" style="shape=table;startSize=30;container=1;collapsible=1;childLayout=tableLayout;fixedRows=1;rowLines=0;fontStyle=1;align=center;resizeLast=1;html=1;fontSize=16;labelBackgroundColor=none;movable=1;resizable=1;rotatable=1;deletable=1;editable=1;locked=0;connectable=1;fillColor=#5D7F99;strokeColor=#D0CEE2;fontColor=#1A1A1A;" parent="1" vertex="1">
          <mxGeometry x="-480" y="-1920" width="380" height="120" as="geometry" />
        </mxCell>
        <mxCell id="PCRB14Bkoi_nJQecKA2T-240" value="" style="shape=tableRow;horizontal=0;startSize=0;swimlaneHead=0;swimlaneBody=0;fillColor=none;collapsible=0;dropTarget=0;points=[[0,0.5],[1,0.5]];portConstraint=eastwest;top=0;left=0;right=0;bottom=1;fontSize=16;labelBackgroundColor=none;strokeColor=#D0CEE2;fontColor=#1A1A1A;" parent="PCRB14Bkoi_nJQecKA2T-239" vertex="1">
          <mxGeometry y="30" width="380" height="30" as="geometry" />
        </mxCell>
        <mxCell id="PCRB14Bkoi_nJQecKA2T-241" value="PK" style="shape=partialRectangle;connectable=0;fillColor=none;top=0;left=0;bottom=0;right=0;fontStyle=1;overflow=hidden;whiteSpace=wrap;html=1;fontSize=16;labelBackgroundColor=none;strokeColor=#D0CEE2;fontColor=#1A1A1A;" parent="PCRB14Bkoi_nJQecKA2T-240" vertex="1">
          <mxGeometry width="70" height="30" as="geometry">
            <mxRectangle width="70" height="30" as="alternateBounds" />
          </mxGeometry>
        </mxCell>
        <mxCell id="PCRB14Bkoi_nJQecKA2T-242" value="serial_number" style="shape=partialRectangle;connectable=0;fillColor=none;top=0;left=0;bottom=0;right=0;align=left;spacingLeft=6;fontStyle=5;overflow=hidden;whiteSpace=wrap;html=1;fontSize=16;labelBackgroundColor=none;strokeColor=#D0CEE2;fontColor=#1A1A1A;" parent="PCRB14Bkoi_nJQecKA2T-240" vertex="1">
          <mxGeometry x="70" width="310" height="30" as="geometry">
            <mxRectangle width="310" height="30" as="alternateBounds" />
          </mxGeometry>
        </mxCell>
        <mxCell id="PCRB14Bkoi_nJQecKA2T-246" value="" style="shape=tableRow;horizontal=0;startSize=0;swimlaneHead=0;swimlaneBody=0;fillColor=none;collapsible=0;dropTarget=0;points=[[0,0.5],[1,0.5]];portConstraint=eastwest;top=0;left=0;right=0;bottom=0;fontSize=16;labelBackgroundColor=none;strokeColor=#D0CEE2;fontColor=#1A1A1A;" parent="PCRB14Bkoi_nJQecKA2T-239" vertex="1">
          <mxGeometry y="60" width="380" height="30" as="geometry" />
        </mxCell>
        <mxCell id="PCRB14Bkoi_nJQecKA2T-247" value="" style="shape=partialRectangle;connectable=0;fillColor=none;top=0;left=0;bottom=0;right=0;editable=1;overflow=hidden;whiteSpace=wrap;html=1;fontSize=16;labelBackgroundColor=none;strokeColor=#D0CEE2;fontColor=#1A1A1A;" parent="PCRB14Bkoi_nJQecKA2T-246" vertex="1">
          <mxGeometry width="70" height="30" as="geometry">
            <mxRectangle width="70" height="30" as="alternateBounds" />
          </mxGeometry>
        </mxCell>
        <mxCell id="PCRB14Bkoi_nJQecKA2T-248" value="reason VARCHAR(255) NOT NULL" style="shape=partialRectangle;connectable=0;fillColor=none;top=0;left=0;bottom=0;right=0;align=left;spacingLeft=6;overflow=hidden;whiteSpace=wrap;html=1;fontSize=16;labelBackgroundColor=none;strokeColor=#D0CEE2;fontColor=#1A1A1A;" parent="PCRB14Bkoi_nJQecKA2T-246" vertex="1">
          <mxGeometry x="70" width="310" height="30" as="geometry">
            <mxRectangle width="310" height="30" as="alternateBounds" />
          </mxGeometry>
        </mxCell>
        <mxCell id="PCRB14Bkoi_nJQecKA2T-249" value="" style="shape=tableRow;horizontal=0;startSize=0;swimlaneHead=0;swimlaneBody=0;fillColor=none;collapsible=0;dropTarget=0;points=[[0,0.5],[1,0.5]];portConstraint=eastwest;top=0;left=0;right=0;bottom=0;fontSize=16;labelBackgroundColor=none;strokeColor=#D0CEE2;fontColor=#1A1A1A;" parent="PCRB14Bkoi_nJQecKA2T-239" vertex="1">
          <mxGeometry y="90" width="380" height="30" as="geometry" />
        </mxCell>
        <mxCell id="PCRB14Bkoi_nJQecKA2T-250" value="" style="shape=partialRectangle;connectable=0;fillColor=none;top=0;left=0;bottom=0;right=0;editable=1;overflow=hidden;whiteSpace=wrap;html=1;fontSize=16;labelBackgroundColor=none;strokeColor=#D0CEE2;fontColor=#1A1A1A;" parent="PCRB14Bkoi_nJQecKA2T-249" vertex="1">
          <mxGeometry width="70" height="30" as="geometry">
            <mxRectangle width="70" height="30" as="alternateBounds" />
          </mxGeometry>
        </mxCell>
        <mxCell id="PCRB14Bkoi_nJQecKA2T-251" value="revoke_date_time DATETIME NOT NULL " style="shape=partialRectangle;connectable=0;fillColor=none;top=0;left=0;bottom=0;right=0;align=left;spacingLeft=6;overflow=hidden;whiteSpace=wrap;html=1;fontSize=16;labelBackgroundColor=none;strokeColor=#D0CEE2;fontColor=#1A1A1A;" parent="PCRB14Bkoi_nJQecKA2T-249" vertex="1">
          <mxGeometry x="70" width="310" height="30" as="geometry">
            <mxRectangle width="310" height="30" as="alternateBounds" />
          </mxGeometry>
        </mxCell>
        <mxCell id="PCRB14Bkoi_nJQecKA2T-252" value="" style="edgeStyle=entityRelationEdgeStyle;fontSize=12;html=1;endArrow=ERoneToMany;rounded=0;exitX=1;exitY=0.5;exitDx=0;exitDy=0;labelBackgroundColor=none;fontColor=default;strokeColor=#736CA8;" parent="1" source="PCRB14Bkoi_nJQecKA2T-284" target="PCRB14Bkoi_nJQecKA2T-226" edge="1">
          <mxGeometry width="100" height="100" relative="1" as="geometry">
            <mxPoint x="-590" y="-1855" as="sourcePoint" />
            <mxPoint x="-240" y="-1880" as="targetPoint" />
          </mxGeometry>
        </mxCell>
        <mxCell id="PCRB14Bkoi_nJQecKA2T-261" value="" style="edgeStyle=entityRelationEdgeStyle;fontSize=12;html=1;endArrow=ERoneToMany;rounded=0;exitX=1;exitY=0.5;exitDx=0;exitDy=0;labelBackgroundColor=none;fontColor=default;strokeColor=#736CA8;" parent="1" source="PCRB14Bkoi_nJQecKA2T-297" target="PCRB14Bkoi_nJQecKA2T-17" edge="1">
          <mxGeometry width="100" height="100" relative="1" as="geometry">
            <mxPoint x="-1320" y="-1150" as="sourcePoint" />
            <mxPoint x="-1220" y="-1250" as="targetPoint" />
          </mxGeometry>
        </mxCell>
        <mxCell id="PCRB14Bkoi_nJQecKA2T-263" value="" style="edgeStyle=entityRelationEdgeStyle;fontSize=12;html=1;endArrow=ERzeroToOne;endFill=1;rounded=0;labelBackgroundColor=none;fontColor=default;movable=1;resizable=1;rotatable=1;deletable=1;editable=1;locked=0;connectable=1;strokeColor=#736CA8;" parent="1" source="PCRB14Bkoi_nJQecKA2T-287" target="PCRB14Bkoi_nJQecKA2T-239" edge="1">
          <mxGeometry width="100" height="100" relative="1" as="geometry">
            <mxPoint x="-170.74999999999997" y="-1240.9499999999998" as="sourcePoint" />
            <mxPoint x="-250.75" y="-1095.9499999999998" as="targetPoint" />
          </mxGeometry>
        </mxCell>
        <mxCell id="PCRB14Bkoi_nJQecKA2T-284" value="is used" style="shape=rhombus;perimeter=rhombusPerimeter;whiteSpace=wrap;html=1;align=center;labelBackgroundColor=none;fillColor=#5D7F99;strokeColor=#D0CEE2;fontColor=#1A1A1A;" parent="1" vertex="1">
          <mxGeometry x="-690" y="-2150" width="120" height="60" as="geometry" />
        </mxCell>
        <mxCell id="PCRB14Bkoi_nJQecKA2T-287" value="if revoked" style="shape=rhombus;perimeter=rhombusPerimeter;whiteSpace=wrap;html=1;align=center;labelBackgroundColor=none;movable=1;resizable=1;rotatable=1;deletable=1;editable=1;locked=0;connectable=1;fillColor=#5D7F99;strokeColor=#D0CEE2;fontColor=#1A1A1A;" parent="1" vertex="1">
          <mxGeometry x="-685" y="-1985" width="110" height="65" as="geometry" />
        </mxCell>
        <mxCell id="PCRB14Bkoi_nJQecKA2T-297" value="belongs to" style="shape=rhombus;perimeter=rhombusPerimeter;whiteSpace=wrap;html=1;align=center;labelBackgroundColor=none;fillColor=#5D7F99;strokeColor=#D0CEE2;fontColor=#1A1A1A;" parent="1" vertex="1">
          <mxGeometry x="-1839" y="-1560" width="129" height="70" as="geometry" />
        </mxCell>
        <mxCell id="PCRB14Bkoi_nJQecKA2T-157" value="Issuer Certificate" style="shape=table;startSize=30;container=1;collapsible=1;childLayout=tableLayout;fixedRows=1;rowLines=0;fontStyle=1;align=center;resizeLast=1;html=1;fontSize=16;labelBackgroundColor=none;fillColor=#5D7F99;strokeColor=#D0CEE2;fontColor=#1A1A1A;" parent="1" vertex="1">
          <mxGeometry x="-3300" y="-2185" width="540" height="1050" as="geometry" />
        </mxCell>
        <mxCell id="PCRB14Bkoi_nJQecKA2T-158" value="" style="shape=tableRow;horizontal=0;startSize=0;swimlaneHead=0;swimlaneBody=0;fillColor=none;collapsible=0;dropTarget=0;points=[[0,0.5],[1,0.5]];portConstraint=eastwest;top=0;left=0;right=0;bottom=1;fontSize=16;labelBackgroundColor=none;strokeColor=#D0CEE2;fontColor=#1A1A1A;" parent="PCRB14Bkoi_nJQecKA2T-157" vertex="1">
          <mxGeometry y="30" width="540" height="40" as="geometry" />
        </mxCell>
        <mxCell id="PCRB14Bkoi_nJQecKA2T-159" value="PK" style="shape=partialRectangle;connectable=0;fillColor=none;top=0;left=0;bottom=0;right=0;fontStyle=1;overflow=hidden;whiteSpace=wrap;html=1;fontSize=16;labelBackgroundColor=none;strokeColor=#D0CEE2;fontColor=#1A1A1A;" parent="PCRB14Bkoi_nJQecKA2T-158" vertex="1">
          <mxGeometry width="90" height="40" as="geometry">
            <mxRectangle width="90" height="40" as="alternateBounds" />
          </mxGeometry>
        </mxCell>
        <mxCell id="PCRB14Bkoi_nJQecKA2T-160" value="issuer_cert_srNo VARCHAR(64)&amp;nbsp; PRIMARY KEY" style="shape=partialRectangle;connectable=0;fillColor=none;top=0;left=0;bottom=0;right=0;align=left;spacingLeft=6;fontStyle=5;overflow=hidden;whiteSpace=wrap;html=1;fontSize=16;labelBackgroundColor=none;strokeColor=#D0CEE2;fontColor=#1A1A1A;" parent="PCRB14Bkoi_nJQecKA2T-158" vertex="1">
          <mxGeometry x="90" width="450" height="40" as="geometry">
            <mxRectangle width="450" height="40" as="alternateBounds" />
          </mxGeometry>
        </mxCell>
        <mxCell id="sTGas-mFVDPfC52rBdnj-193" value="" style="shape=tableRow;horizontal=0;startSize=0;swimlaneHead=0;swimlaneBody=0;fillColor=none;collapsible=0;dropTarget=0;points=[[0,0.5],[1,0.5]];portConstraint=eastwest;top=0;left=0;right=0;bottom=1;fontSize=16;labelBackgroundColor=none;strokeColor=#D0CEE2;fontColor=#1A1A1A;" parent="PCRB14Bkoi_nJQecKA2T-157" vertex="1">
          <mxGeometry y="70" width="540" height="40" as="geometry" />
        </mxCell>
        <mxCell id="sTGas-mFVDPfC52rBdnj-194" value="FK" style="shape=partialRectangle;connectable=0;fillColor=none;top=0;left=0;bottom=0;right=0;fontStyle=1;overflow=hidden;whiteSpace=wrap;html=1;fontSize=16;labelBackgroundColor=none;strokeColor=#D0CEE2;fontColor=#1A1A1A;" parent="sTGas-mFVDPfC52rBdnj-193" vertex="1">
          <mxGeometry width="90" height="40" as="geometry">
            <mxRectangle width="90" height="40" as="alternateBounds" />
          </mxGeometry>
        </mxCell>
        <mxCell id="sTGas-mFVDPfC52rBdnj-195" value="issuer_ID" style="shape=partialRectangle;connectable=0;fillColor=none;top=0;left=0;bottom=0;right=0;align=left;spacingLeft=6;fontStyle=5;overflow=hidden;whiteSpace=wrap;html=1;fontSize=16;labelBackgroundColor=none;strokeColor=#D0CEE2;fontColor=#1A1A1A;" parent="sTGas-mFVDPfC52rBdnj-193" vertex="1">
          <mxGeometry x="90" width="450" height="40" as="geometry">
            <mxRectangle width="450" height="40" as="alternateBounds" />
          </mxGeometry>
        </mxCell>
        <mxCell id="PCRB14Bkoi_nJQecKA2T-167" value="" style="shape=tableRow;horizontal=0;startSize=0;swimlaneHead=0;swimlaneBody=0;fillColor=none;collapsible=0;dropTarget=0;points=[[0,0.5],[1,0.5]];portConstraint=eastwest;top=0;left=0;right=0;bottom=0;fontSize=16;labelBackgroundColor=none;strokeColor=#D0CEE2;fontColor=#1A1A1A;" parent="PCRB14Bkoi_nJQecKA2T-157" vertex="1">
          <mxGeometry y="110" width="540" height="40" as="geometry" />
        </mxCell>
        <mxCell id="PCRB14Bkoi_nJQecKA2T-168" value="" style="shape=partialRectangle;connectable=0;fillColor=none;top=0;left=0;bottom=0;right=0;editable=1;overflow=hidden;whiteSpace=wrap;html=1;fontSize=16;labelBackgroundColor=none;strokeColor=#D0CEE2;fontColor=#1A1A1A;" parent="PCRB14Bkoi_nJQecKA2T-167" vertex="1">
          <mxGeometry width="90" height="40" as="geometry">
            <mxRectangle width="90" height="40" as="alternateBounds" />
          </mxGeometry>
        </mxCell>
        <mxCell id="PCRB14Bkoi_nJQecKA2T-169" value="iCert_version VARCHAR (10) NOT NULL" style="shape=partialRectangle;connectable=0;fillColor=none;top=0;left=0;bottom=0;right=0;align=left;spacingLeft=6;overflow=hidden;whiteSpace=wrap;html=1;fontSize=16;labelBackgroundColor=none;strokeColor=#D0CEE2;fontColor=#1A1A1A;" parent="PCRB14Bkoi_nJQecKA2T-167" vertex="1">
          <mxGeometry x="90" width="450" height="40" as="geometry">
            <mxRectangle width="450" height="40" as="alternateBounds" />
          </mxGeometry>
        </mxCell>
        <mxCell id="PCRB14Bkoi_nJQecKA2T-170" value="" style="shape=tableRow;horizontal=0;startSize=0;swimlaneHead=0;swimlaneBody=0;fillColor=none;collapsible=0;dropTarget=0;points=[[0,0.5],[1,0.5]];portConstraint=eastwest;top=0;left=0;right=0;bottom=0;fontSize=16;labelBackgroundColor=none;strokeColor=#D0CEE2;fontColor=#1A1A1A;" parent="PCRB14Bkoi_nJQecKA2T-157" vertex="1">
          <mxGeometry y="150" width="540" height="40" as="geometry" />
        </mxCell>
        <mxCell id="PCRB14Bkoi_nJQecKA2T-171" value="" style="shape=partialRectangle;connectable=0;fillColor=none;top=0;left=0;bottom=0;right=0;editable=1;overflow=hidden;whiteSpace=wrap;html=1;fontSize=16;labelBackgroundColor=none;strokeColor=#D0CEE2;fontColor=#1A1A1A;" parent="PCRB14Bkoi_nJQecKA2T-170" vertex="1">
          <mxGeometry width="90" height="40" as="geometry">
            <mxRectangle width="90" height="40" as="alternateBounds" />
          </mxGeometry>
        </mxCell>
        <mxCell id="PCRB14Bkoi_nJQecKA2T-172" value="iCert_type VARCHAR(20) NOT NULL" style="shape=partialRectangle;connectable=0;fillColor=none;top=0;left=0;bottom=0;right=0;align=left;spacingLeft=6;overflow=hidden;whiteSpace=wrap;html=1;fontSize=16;labelBackgroundColor=none;strokeColor=#D0CEE2;fontColor=#1A1A1A;" parent="PCRB14Bkoi_nJQecKA2T-170" vertex="1">
          <mxGeometry x="90" width="450" height="40" as="geometry">
            <mxRectangle width="450" height="40" as="alternateBounds" />
          </mxGeometry>
        </mxCell>
        <mxCell id="PCRB14Bkoi_nJQecKA2T-176" value="" style="shape=tableRow;horizontal=0;startSize=0;swimlaneHead=0;swimlaneBody=0;fillColor=none;collapsible=0;dropTarget=0;points=[[0,0.5],[1,0.5]];portConstraint=eastwest;top=0;left=0;right=0;bottom=0;fontSize=16;labelBackgroundColor=none;strokeColor=#D0CEE2;fontColor=#1A1A1A;" parent="PCRB14Bkoi_nJQecKA2T-157" vertex="1">
          <mxGeometry y="190" width="540" height="40" as="geometry" />
        </mxCell>
        <mxCell id="PCRB14Bkoi_nJQecKA2T-177" value="" style="shape=partialRectangle;connectable=0;fillColor=none;top=0;left=0;bottom=0;right=0;editable=1;overflow=hidden;whiteSpace=wrap;html=1;fontSize=16;labelBackgroundColor=none;strokeColor=#D0CEE2;fontColor=#1A1A1A;" parent="PCRB14Bkoi_nJQecKA2T-176" vertex="1">
          <mxGeometry width="90" height="40" as="geometry">
            <mxRectangle width="90" height="40" as="alternateBounds" />
          </mxGeometry>
        </mxCell>
        <mxCell id="PCRB14Bkoi_nJQecKA2T-178" value="iCert_issue_date DATE NOT NULL" style="shape=partialRectangle;connectable=0;fillColor=none;top=0;left=0;bottom=0;right=0;align=left;spacingLeft=6;overflow=hidden;whiteSpace=wrap;html=1;fontSize=16;labelBackgroundColor=none;strokeColor=#D0CEE2;fontColor=#1A1A1A;" parent="PCRB14Bkoi_nJQecKA2T-176" vertex="1">
          <mxGeometry x="90" width="450" height="40" as="geometry">
            <mxRectangle width="450" height="40" as="alternateBounds" />
          </mxGeometry>
        </mxCell>
        <mxCell id="PCRB14Bkoi_nJQecKA2T-179" value="" style="shape=tableRow;horizontal=0;startSize=0;swimlaneHead=0;swimlaneBody=0;fillColor=none;collapsible=0;dropTarget=0;points=[[0,0.5],[1,0.5]];portConstraint=eastwest;top=0;left=0;right=0;bottom=0;fontSize=16;labelBackgroundColor=none;strokeColor=#D0CEE2;fontColor=#1A1A1A;" parent="PCRB14Bkoi_nJQecKA2T-157" vertex="1">
          <mxGeometry y="230" width="540" height="40" as="geometry" />
        </mxCell>
        <mxCell id="PCRB14Bkoi_nJQecKA2T-180" value="" style="shape=partialRectangle;connectable=0;fillColor=none;top=0;left=0;bottom=0;right=0;editable=1;overflow=hidden;whiteSpace=wrap;html=1;fontSize=16;labelBackgroundColor=none;strokeColor=#D0CEE2;fontColor=#1A1A1A;" parent="PCRB14Bkoi_nJQecKA2T-179" vertex="1">
          <mxGeometry width="90" height="40" as="geometry">
            <mxRectangle width="90" height="40" as="alternateBounds" />
          </mxGeometry>
        </mxCell>
        <mxCell id="PCRB14Bkoi_nJQecKA2T-181" value="iCert_expiry_date DATE NOT NULL" style="shape=partialRectangle;connectable=0;fillColor=none;top=0;left=0;bottom=0;right=0;align=left;spacingLeft=6;overflow=hidden;whiteSpace=wrap;html=1;fontSize=16;labelBackgroundColor=none;strokeColor=#D0CEE2;fontColor=#1A1A1A;" parent="PCRB14Bkoi_nJQecKA2T-179" vertex="1">
          <mxGeometry x="90" width="450" height="40" as="geometry">
            <mxRectangle width="450" height="40" as="alternateBounds" />
          </mxGeometry>
        </mxCell>
        <mxCell id="PCRB14Bkoi_nJQecKA2T-520" value="" style="shape=tableRow;horizontal=0;startSize=0;swimlaneHead=0;swimlaneBody=0;fillColor=none;collapsible=0;dropTarget=0;points=[[0,0.5],[1,0.5]];portConstraint=eastwest;top=0;left=0;right=0;bottom=0;fontSize=16;labelBackgroundColor=none;strokeColor=#D0CEE2;fontColor=#1A1A1A;" parent="PCRB14Bkoi_nJQecKA2T-157" vertex="1">
          <mxGeometry y="270" width="540" height="40" as="geometry" />
        </mxCell>
        <mxCell id="PCRB14Bkoi_nJQecKA2T-521" value="" style="shape=partialRectangle;connectable=0;fillColor=none;top=0;left=0;bottom=0;right=0;editable=1;overflow=hidden;whiteSpace=wrap;html=1;fontSize=16;labelBackgroundColor=none;strokeColor=#D0CEE2;fontColor=#1A1A1A;" parent="PCRB14Bkoi_nJQecKA2T-520" vertex="1">
          <mxGeometry width="90" height="40" as="geometry">
            <mxRectangle width="90" height="40" as="alternateBounds" />
          </mxGeometry>
        </mxCell>
        <mxCell id="PCRB14Bkoi_nJQecKA2T-522" value="iCert_fp_digest VARCHAR(10) NOT NULL" style="shape=partialRectangle;connectable=0;fillColor=none;top=0;left=0;bottom=0;right=0;align=left;spacingLeft=6;overflow=hidden;whiteSpace=wrap;html=1;fontSize=16;labelBackgroundColor=none;strokeColor=#D0CEE2;fontColor=#1A1A1A;" parent="PCRB14Bkoi_nJQecKA2T-520" vertex="1">
          <mxGeometry x="90" width="450" height="40" as="geometry">
            <mxRectangle width="450" height="40" as="alternateBounds" />
          </mxGeometry>
        </mxCell>
        <mxCell id="sTGas-mFVDPfC52rBdnj-176" value="" style="shape=tableRow;horizontal=0;startSize=0;swimlaneHead=0;swimlaneBody=0;fillColor=none;collapsible=0;dropTarget=0;points=[[0,0.5],[1,0.5]];portConstraint=eastwest;top=0;left=0;right=0;bottom=0;fontSize=16;labelBackgroundColor=none;strokeColor=#D0CEE2;fontColor=#1A1A1A;" parent="PCRB14Bkoi_nJQecKA2T-157" vertex="1">
          <mxGeometry y="310" width="540" height="40" as="geometry" />
        </mxCell>
        <mxCell id="sTGas-mFVDPfC52rBdnj-177" value="" style="shape=partialRectangle;connectable=0;fillColor=none;top=0;left=0;bottom=0;right=0;editable=1;overflow=hidden;whiteSpace=wrap;html=1;fontSize=16;labelBackgroundColor=none;strokeColor=#D0CEE2;fontColor=#1A1A1A;" parent="sTGas-mFVDPfC52rBdnj-176" vertex="1">
          <mxGeometry width="90" height="40" as="geometry">
            <mxRectangle width="90" height="40" as="alternateBounds" />
          </mxGeometry>
        </mxCell>
        <mxCell id="sTGas-mFVDPfC52rBdnj-178" value="iCert_fp_algo VARCHAR(255) NOT NULL" style="shape=partialRectangle;connectable=0;fillColor=none;top=0;left=0;bottom=0;right=0;align=left;spacingLeft=6;overflow=hidden;whiteSpace=wrap;html=1;fontSize=16;labelBackgroundColor=none;strokeColor=#D0CEE2;fontColor=#1A1A1A;" parent="sTGas-mFVDPfC52rBdnj-176" vertex="1">
          <mxGeometry x="90" width="450" height="40" as="geometry">
            <mxRectangle width="450" height="40" as="alternateBounds" />
          </mxGeometry>
        </mxCell>
        <mxCell id="PCRB14Bkoi_nJQecKA2T-523" value="" style="shape=tableRow;horizontal=0;startSize=0;swimlaneHead=0;swimlaneBody=0;fillColor=none;collapsible=0;dropTarget=0;points=[[0,0.5],[1,0.5]];portConstraint=eastwest;top=0;left=0;right=0;bottom=0;fontSize=16;labelBackgroundColor=none;strokeColor=#D0CEE2;fontColor=#1A1A1A;" parent="PCRB14Bkoi_nJQecKA2T-157" vertex="1">
          <mxGeometry y="350" width="540" height="40" as="geometry" />
        </mxCell>
        <mxCell id="PCRB14Bkoi_nJQecKA2T-524" value="" style="shape=partialRectangle;connectable=0;fillColor=none;top=0;left=0;bottom=0;right=0;editable=1;overflow=hidden;whiteSpace=wrap;html=1;fontSize=16;labelBackgroundColor=none;strokeColor=#D0CEE2;fontColor=#1A1A1A;" parent="PCRB14Bkoi_nJQecKA2T-523" vertex="1">
          <mxGeometry width="90" height="40" as="geometry">
            <mxRectangle width="90" height="40" as="alternateBounds" />
          </mxGeometry>
        </mxCell>
        <mxCell id="PCRB14Bkoi_nJQecKA2T-525" value="" style="shape=partialRectangle;connectable=0;fillColor=none;top=0;left=0;bottom=0;right=0;align=left;spacingLeft=6;overflow=hidden;whiteSpace=wrap;html=1;fontSize=16;labelBackgroundColor=none;strokeColor=#D0CEE2;fontColor=#1A1A1A;" parent="PCRB14Bkoi_nJQecKA2T-523" vertex="1">
          <mxGeometry x="90" width="450" height="40" as="geometry">
            <mxRectangle width="450" height="40" as="alternateBounds" />
          </mxGeometry>
        </mxCell>
        <mxCell id="PCRB14Bkoi_nJQecKA2T-526" value="" style="shape=tableRow;horizontal=0;startSize=0;swimlaneHead=0;swimlaneBody=0;fillColor=none;collapsible=0;dropTarget=0;points=[[0,0.5],[1,0.5]];portConstraint=eastwest;top=0;left=0;right=0;bottom=0;fontSize=16;labelBackgroundColor=none;strokeColor=#D0CEE2;fontColor=#1A1A1A;" parent="PCRB14Bkoi_nJQecKA2T-157" vertex="1">
          <mxGeometry y="390" width="540" height="40" as="geometry" />
        </mxCell>
        <mxCell id="PCRB14Bkoi_nJQecKA2T-527" value="" style="shape=partialRectangle;connectable=0;fillColor=none;top=0;left=0;bottom=0;right=0;editable=1;overflow=hidden;whiteSpace=wrap;html=1;fontSize=16;labelBackgroundColor=none;strokeColor=#D0CEE2;fontColor=#1A1A1A;" parent="PCRB14Bkoi_nJQecKA2T-526" vertex="1">
          <mxGeometry width="90" height="40" as="geometry">
            <mxRectangle width="90" height="40" as="alternateBounds" />
          </mxGeometry>
        </mxCell>
        <mxCell id="PCRB14Bkoi_nJQecKA2T-528" value="iCert_pk VARCHAR(600) NOT NULL" style="shape=partialRectangle;connectable=0;fillColor=none;top=0;left=0;bottom=0;right=0;align=left;spacingLeft=6;overflow=hidden;whiteSpace=wrap;html=1;fontSize=16;labelBackgroundColor=none;strokeColor=#D0CEE2;fontColor=#1A1A1A;" parent="PCRB14Bkoi_nJQecKA2T-526" vertex="1">
          <mxGeometry x="90" width="450" height="40" as="geometry">
            <mxRectangle width="450" height="40" as="alternateBounds" />
          </mxGeometry>
        </mxCell>
        <mxCell id="PCRB14Bkoi_nJQecKA2T-545" value="" style="shape=tableRow;horizontal=0;startSize=0;swimlaneHead=0;swimlaneBody=0;fillColor=none;collapsible=0;dropTarget=0;points=[[0,0.5],[1,0.5]];portConstraint=eastwest;top=0;left=0;right=0;bottom=0;fontSize=16;labelBackgroundColor=none;strokeColor=#D0CEE2;fontColor=#1A1A1A;" parent="PCRB14Bkoi_nJQecKA2T-157" vertex="1">
          <mxGeometry y="430" width="540" height="40" as="geometry" />
        </mxCell>
        <mxCell id="PCRB14Bkoi_nJQecKA2T-546" value="" style="shape=partialRectangle;connectable=0;fillColor=none;top=0;left=0;bottom=0;right=0;editable=1;overflow=hidden;whiteSpace=wrap;html=1;fontSize=16;labelBackgroundColor=none;strokeColor=#D0CEE2;fontColor=#1A1A1A;" parent="PCRB14Bkoi_nJQecKA2T-545" vertex="1">
          <mxGeometry width="90" height="40" as="geometry">
            <mxRectangle width="90" height="40" as="alternateBounds" />
          </mxGeometry>
        </mxCell>
        <mxCell id="PCRB14Bkoi_nJQecKA2T-547" value="iCert_pk_algo VARCHAR(5) " style="shape=partialRectangle;connectable=0;fillColor=none;top=0;left=0;bottom=0;right=0;align=left;spacingLeft=6;overflow=hidden;whiteSpace=wrap;html=1;fontSize=16;labelBackgroundColor=none;strokeColor=#D0CEE2;fontColor=#1A1A1A;" parent="PCRB14Bkoi_nJQecKA2T-545" vertex="1">
          <mxGeometry x="90" width="450" height="40" as="geometry">
            <mxRectangle width="450" height="40" as="alternateBounds" />
          </mxGeometry>
        </mxCell>
        <mxCell id="PCRB14Bkoi_nJQecKA2T-551" value="" style="shape=tableRow;horizontal=0;startSize=0;swimlaneHead=0;swimlaneBody=0;fillColor=none;collapsible=0;dropTarget=0;points=[[0,0.5],[1,0.5]];portConstraint=eastwest;top=0;left=0;right=0;bottom=0;fontSize=16;labelBackgroundColor=none;strokeColor=#D0CEE2;fontColor=#1A1A1A;" parent="PCRB14Bkoi_nJQecKA2T-157" vertex="1">
          <mxGeometry y="470" width="540" height="40" as="geometry" />
        </mxCell>
        <mxCell id="PCRB14Bkoi_nJQecKA2T-552" value="" style="shape=partialRectangle;connectable=0;fillColor=none;top=0;left=0;bottom=0;right=0;editable=1;overflow=hidden;whiteSpace=wrap;html=1;fontSize=16;labelBackgroundColor=none;strokeColor=#D0CEE2;fontColor=#1A1A1A;" parent="PCRB14Bkoi_nJQecKA2T-551" vertex="1">
          <mxGeometry width="90" height="40" as="geometry">
            <mxRectangle width="90" height="40" as="alternateBounds" />
          </mxGeometry>
        </mxCell>
        <mxCell id="PCRB14Bkoi_nJQecKA2T-553" value="iCert_pk_size INT" style="shape=partialRectangle;connectable=0;fillColor=none;top=0;left=0;bottom=0;right=0;align=left;spacingLeft=6;overflow=hidden;whiteSpace=wrap;html=1;fontSize=16;labelBackgroundColor=none;strokeColor=#D0CEE2;fontColor=#1A1A1A;" parent="PCRB14Bkoi_nJQecKA2T-551" vertex="1">
          <mxGeometry x="90" width="450" height="40" as="geometry">
            <mxRectangle width="450" height="40" as="alternateBounds" />
          </mxGeometry>
        </mxCell>
        <mxCell id="PCRB14Bkoi_nJQecKA2T-554" value="" style="shape=tableRow;horizontal=0;startSize=0;swimlaneHead=0;swimlaneBody=0;fillColor=none;collapsible=0;dropTarget=0;points=[[0,0.5],[1,0.5]];portConstraint=eastwest;top=0;left=0;right=0;bottom=0;fontSize=16;labelBackgroundColor=none;strokeColor=#D0CEE2;fontColor=#1A1A1A;" parent="PCRB14Bkoi_nJQecKA2T-157" vertex="1">
          <mxGeometry y="510" width="540" height="40" as="geometry" />
        </mxCell>
        <mxCell id="PCRB14Bkoi_nJQecKA2T-555" value="" style="shape=partialRectangle;connectable=0;fillColor=none;top=0;left=0;bottom=0;right=0;editable=1;overflow=hidden;whiteSpace=wrap;html=1;fontSize=16;labelBackgroundColor=none;strokeColor=#D0CEE2;fontColor=#1A1A1A;" parent="PCRB14Bkoi_nJQecKA2T-554" vertex="1">
          <mxGeometry width="90" height="40" as="geometry">
            <mxRectangle width="90" height="40" as="alternateBounds" />
          </mxGeometry>
        </mxCell>
        <mxCell id="PCRB14Bkoi_nJQecKA2T-556" value="iCert_pk_digest VARCHAR(5)" style="shape=partialRectangle;connectable=0;fillColor=none;top=0;left=0;bottom=0;right=0;align=left;spacingLeft=6;overflow=hidden;whiteSpace=wrap;html=1;fontSize=16;labelBackgroundColor=none;strokeColor=#D0CEE2;fontColor=#1A1A1A;" parent="PCRB14Bkoi_nJQecKA2T-554" vertex="1">
          <mxGeometry x="90" width="450" height="40" as="geometry">
            <mxRectangle width="450" height="40" as="alternateBounds" />
          </mxGeometry>
        </mxCell>
        <mxCell id="PCRB14Bkoi_nJQecKA2T-557" value="" style="shape=tableRow;horizontal=0;startSize=0;swimlaneHead=0;swimlaneBody=0;fillColor=none;collapsible=0;dropTarget=0;points=[[0,0.5],[1,0.5]];portConstraint=eastwest;top=0;left=0;right=0;bottom=0;fontSize=16;labelBackgroundColor=none;strokeColor=#D0CEE2;fontColor=#1A1A1A;" parent="PCRB14Bkoi_nJQecKA2T-157" vertex="1">
          <mxGeometry y="550" width="540" height="40" as="geometry" />
        </mxCell>
        <mxCell id="PCRB14Bkoi_nJQecKA2T-558" value="" style="shape=partialRectangle;connectable=0;fillColor=none;top=0;left=0;bottom=0;right=0;editable=1;overflow=hidden;whiteSpace=wrap;html=1;fontSize=16;labelBackgroundColor=none;strokeColor=#D0CEE2;fontColor=#1A1A1A;" parent="PCRB14Bkoi_nJQecKA2T-557" vertex="1">
          <mxGeometry width="90" height="40" as="geometry">
            <mxRectangle width="90" height="40" as="alternateBounds" />
          </mxGeometry>
        </mxCell>
        <mxCell id="PCRB14Bkoi_nJQecKA2T-559" value="iCert_pk_digest_algo VARCHAR(50)" style="shape=partialRectangle;connectable=0;fillColor=none;top=0;left=0;bottom=0;right=0;align=left;spacingLeft=6;overflow=hidden;whiteSpace=wrap;html=1;fontSize=16;labelBackgroundColor=none;strokeColor=#D0CEE2;fontColor=#1A1A1A;" parent="PCRB14Bkoi_nJQecKA2T-557" vertex="1">
          <mxGeometry x="90" width="450" height="40" as="geometry">
            <mxRectangle width="450" height="40" as="alternateBounds" />
          </mxGeometry>
        </mxCell>
        <mxCell id="PCRB14Bkoi_nJQecKA2T-560" value="" style="shape=tableRow;horizontal=0;startSize=0;swimlaneHead=0;swimlaneBody=0;fillColor=none;collapsible=0;dropTarget=0;points=[[0,0.5],[1,0.5]];portConstraint=eastwest;top=0;left=0;right=0;bottom=0;fontSize=16;labelBackgroundColor=none;strokeColor=#D0CEE2;fontColor=#1A1A1A;" parent="PCRB14Bkoi_nJQecKA2T-157" vertex="1">
          <mxGeometry y="590" width="540" height="30" as="geometry" />
        </mxCell>
        <mxCell id="PCRB14Bkoi_nJQecKA2T-561" value="" style="shape=partialRectangle;connectable=0;fillColor=none;top=0;left=0;bottom=0;right=0;editable=1;overflow=hidden;whiteSpace=wrap;html=1;fontSize=16;labelBackgroundColor=none;strokeColor=#D0CEE2;fontColor=#1A1A1A;" parent="PCRB14Bkoi_nJQecKA2T-560" vertex="1">
          <mxGeometry width="90" height="30" as="geometry">
            <mxRectangle width="90" height="30" as="alternateBounds" />
          </mxGeometry>
        </mxCell>
        <mxCell id="PCRB14Bkoi_nJQecKA2T-562" value="" style="shape=partialRectangle;connectable=0;fillColor=none;top=0;left=0;bottom=0;right=0;align=left;spacingLeft=6;overflow=hidden;whiteSpace=wrap;html=1;fontSize=16;labelBackgroundColor=none;strokeColor=#D0CEE2;fontColor=#1A1A1A;" parent="PCRB14Bkoi_nJQecKA2T-560" vertex="1">
          <mxGeometry x="90" width="450" height="30" as="geometry">
            <mxRectangle width="450" height="30" as="alternateBounds" />
          </mxGeometry>
        </mxCell>
        <mxCell id="PCRB14Bkoi_nJQecKA2T-566" value="" style="shape=tableRow;horizontal=0;startSize=0;swimlaneHead=0;swimlaneBody=0;fillColor=none;collapsible=0;dropTarget=0;points=[[0,0.5],[1,0.5]];portConstraint=eastwest;top=0;left=0;right=0;bottom=0;fontSize=16;labelBackgroundColor=none;strokeColor=#D0CEE2;fontColor=#1A1A1A;" parent="PCRB14Bkoi_nJQecKA2T-157" vertex="1">
          <mxGeometry y="620" width="540" height="20" as="geometry" />
        </mxCell>
        <mxCell id="PCRB14Bkoi_nJQecKA2T-567" value="" style="shape=partialRectangle;connectable=0;fillColor=none;top=0;left=0;bottom=0;right=0;editable=1;overflow=hidden;whiteSpace=wrap;html=1;fontSize=16;labelBackgroundColor=none;strokeColor=#D0CEE2;fontColor=#1A1A1A;" parent="PCRB14Bkoi_nJQecKA2T-566" vertex="1">
          <mxGeometry width="90" height="20" as="geometry">
            <mxRectangle width="90" height="20" as="alternateBounds" />
          </mxGeometry>
        </mxCell>
        <mxCell id="PCRB14Bkoi_nJQecKA2T-568" value="" style="shape=partialRectangle;connectable=0;fillColor=none;top=0;left=0;bottom=0;right=0;align=left;spacingLeft=6;overflow=hidden;whiteSpace=wrap;html=1;fontSize=16;labelBackgroundColor=none;strokeColor=#D0CEE2;fontColor=#1A1A1A;" parent="PCRB14Bkoi_nJQecKA2T-566" vertex="1">
          <mxGeometry x="90" width="450" height="20" as="geometry">
            <mxRectangle width="450" height="20" as="alternateBounds" />
          </mxGeometry>
        </mxCell>
        <mxCell id="PCRB14Bkoi_nJQecKA2T-569" value="" style="shape=tableRow;horizontal=0;startSize=0;swimlaneHead=0;swimlaneBody=0;fillColor=none;collapsible=0;dropTarget=0;points=[[0,0.5],[1,0.5]];portConstraint=eastwest;top=0;left=0;right=0;bottom=0;fontSize=16;labelBackgroundColor=none;strokeColor=#D0CEE2;fontColor=#1A1A1A;" parent="PCRB14Bkoi_nJQecKA2T-157" vertex="1">
          <mxGeometry y="640" width="540" height="40" as="geometry" />
        </mxCell>
        <mxCell id="PCRB14Bkoi_nJQecKA2T-570" value="" style="shape=partialRectangle;connectable=0;fillColor=none;top=0;left=0;bottom=0;right=0;editable=1;overflow=hidden;whiteSpace=wrap;html=1;fontSize=16;labelBackgroundColor=none;strokeColor=#D0CEE2;fontColor=#1A1A1A;" parent="PCRB14Bkoi_nJQecKA2T-569" vertex="1">
          <mxGeometry width="90" height="40" as="geometry">
            <mxRectangle width="90" height="40" as="alternateBounds" />
          </mxGeometry>
        </mxCell>
        <mxCell id="PCRB14Bkoi_nJQecKA2T-571" value="iCert_BC_subjType VARCHAR(20)" style="shape=partialRectangle;connectable=0;fillColor=none;top=0;left=0;bottom=0;right=0;align=left;spacingLeft=6;overflow=hidden;whiteSpace=wrap;html=1;fontSize=16;labelBackgroundColor=none;strokeColor=#D0CEE2;fontColor=#1A1A1A;" parent="PCRB14Bkoi_nJQecKA2T-569" vertex="1">
          <mxGeometry x="90" width="450" height="40" as="geometry">
            <mxRectangle width="450" height="40" as="alternateBounds" />
          </mxGeometry>
        </mxCell>
        <mxCell id="PCRB14Bkoi_nJQecKA2T-605" value="" style="shape=tableRow;horizontal=0;startSize=0;swimlaneHead=0;swimlaneBody=0;fillColor=none;collapsible=0;dropTarget=0;points=[[0,0.5],[1,0.5]];portConstraint=eastwest;top=0;left=0;right=0;bottom=0;fontSize=16;labelBackgroundColor=none;strokeColor=#D0CEE2;fontColor=#1A1A1A;" parent="PCRB14Bkoi_nJQecKA2T-157" vertex="1">
          <mxGeometry y="680" width="540" height="40" as="geometry" />
        </mxCell>
        <mxCell id="PCRB14Bkoi_nJQecKA2T-606" value="" style="shape=partialRectangle;connectable=0;fillColor=none;top=0;left=0;bottom=0;right=0;editable=1;overflow=hidden;whiteSpace=wrap;html=1;fontSize=16;labelBackgroundColor=none;strokeColor=#D0CEE2;fontColor=#1A1A1A;" parent="PCRB14Bkoi_nJQecKA2T-605" vertex="1">
          <mxGeometry width="90" height="40" as="geometry">
            <mxRectangle width="90" height="40" as="alternateBounds" />
          </mxGeometry>
        </mxCell>
        <mxCell id="PCRB14Bkoi_nJQecKA2T-607" value="iCert_BC_maxPathL VARCHAR(20)" style="shape=partialRectangle;connectable=0;fillColor=none;top=0;left=0;bottom=0;right=0;align=left;spacingLeft=6;overflow=hidden;whiteSpace=wrap;html=1;fontSize=16;labelBackgroundColor=none;strokeColor=#D0CEE2;fontColor=#1A1A1A;" parent="PCRB14Bkoi_nJQecKA2T-605" vertex="1">
          <mxGeometry x="90" width="450" height="40" as="geometry">
            <mxRectangle width="450" height="40" as="alternateBounds" />
          </mxGeometry>
        </mxCell>
        <mxCell id="PCRB14Bkoi_nJQecKA2T-572" value="" style="shape=tableRow;horizontal=0;startSize=0;swimlaneHead=0;swimlaneBody=0;fillColor=none;collapsible=0;dropTarget=0;points=[[0,0.5],[1,0.5]];portConstraint=eastwest;top=0;left=0;right=0;bottom=0;fontSize=16;labelBackgroundColor=none;strokeColor=#D0CEE2;fontColor=#1A1A1A;" parent="PCRB14Bkoi_nJQecKA2T-157" vertex="1">
          <mxGeometry y="720" width="540" height="30" as="geometry" />
        </mxCell>
        <mxCell id="PCRB14Bkoi_nJQecKA2T-573" value="" style="shape=partialRectangle;connectable=0;fillColor=none;top=0;left=0;bottom=0;right=0;editable=1;overflow=hidden;whiteSpace=wrap;html=1;fontSize=16;labelBackgroundColor=none;strokeColor=#D0CEE2;fontColor=#1A1A1A;" parent="PCRB14Bkoi_nJQecKA2T-572" vertex="1">
          <mxGeometry width="90" height="30" as="geometry">
            <mxRectangle width="90" height="30" as="alternateBounds" />
          </mxGeometry>
        </mxCell>
        <mxCell id="PCRB14Bkoi_nJQecKA2T-574" value="" style="shape=partialRectangle;connectable=0;fillColor=none;top=0;left=0;bottom=0;right=0;align=left;spacingLeft=6;overflow=hidden;whiteSpace=wrap;html=1;fontSize=16;labelBackgroundColor=none;strokeColor=#D0CEE2;fontColor=#1A1A1A;" parent="PCRB14Bkoi_nJQecKA2T-572" vertex="1">
          <mxGeometry x="90" width="450" height="30" as="geometry">
            <mxRectangle width="450" height="30" as="alternateBounds" />
          </mxGeometry>
        </mxCell>
        <mxCell id="PCRB14Bkoi_nJQecKA2T-575" value="" style="shape=tableRow;horizontal=0;startSize=0;swimlaneHead=0;swimlaneBody=0;fillColor=none;collapsible=0;dropTarget=0;points=[[0,0.5],[1,0.5]];portConstraint=eastwest;top=0;left=0;right=0;bottom=0;fontSize=16;labelBackgroundColor=none;strokeColor=#D0CEE2;fontColor=#1A1A1A;" parent="PCRB14Bkoi_nJQecKA2T-157" vertex="1">
          <mxGeometry y="750" width="540" height="30" as="geometry" />
        </mxCell>
        <mxCell id="PCRB14Bkoi_nJQecKA2T-576" value="" style="shape=partialRectangle;connectable=0;fillColor=none;top=0;left=0;bottom=0;right=0;editable=1;overflow=hidden;whiteSpace=wrap;html=1;fontSize=16;labelBackgroundColor=none;strokeColor=#D0CEE2;fontColor=#1A1A1A;" parent="PCRB14Bkoi_nJQecKA2T-575" vertex="1">
          <mxGeometry width="90" height="30" as="geometry">
            <mxRectangle width="90" height="30" as="alternateBounds" />
          </mxGeometry>
        </mxCell>
        <mxCell id="PCRB14Bkoi_nJQecKA2T-577" value="iCert_key_usage VARCHAR(20)" style="shape=partialRectangle;connectable=0;fillColor=none;top=0;left=0;bottom=0;right=0;align=left;spacingLeft=6;overflow=hidden;whiteSpace=wrap;html=1;fontSize=16;labelBackgroundColor=none;strokeColor=#D0CEE2;fontColor=#1A1A1A;" parent="PCRB14Bkoi_nJQecKA2T-575" vertex="1">
          <mxGeometry x="90" width="450" height="30" as="geometry">
            <mxRectangle width="450" height="30" as="alternateBounds" />
          </mxGeometry>
        </mxCell>
        <mxCell id="PCRB14Bkoi_nJQecKA2T-578" value="" style="shape=tableRow;horizontal=0;startSize=0;swimlaneHead=0;swimlaneBody=0;fillColor=none;collapsible=0;dropTarget=0;points=[[0,0.5],[1,0.5]];portConstraint=eastwest;top=0;left=0;right=0;bottom=0;fontSize=16;labelBackgroundColor=none;strokeColor=#D0CEE2;fontColor=#1A1A1A;" parent="PCRB14Bkoi_nJQecKA2T-157" vertex="1">
          <mxGeometry y="780" width="540" height="30" as="geometry" />
        </mxCell>
        <mxCell id="PCRB14Bkoi_nJQecKA2T-579" value="" style="shape=partialRectangle;connectable=0;fillColor=none;top=0;left=0;bottom=0;right=0;editable=1;overflow=hidden;whiteSpace=wrap;html=1;fontSize=16;labelBackgroundColor=none;strokeColor=#D0CEE2;fontColor=#1A1A1A;" parent="PCRB14Bkoi_nJQecKA2T-578" vertex="1">
          <mxGeometry width="90" height="30" as="geometry">
            <mxRectangle width="90" height="30" as="alternateBounds" />
          </mxGeometry>
        </mxCell>
        <mxCell id="PCRB14Bkoi_nJQecKA2T-580" value="" style="shape=partialRectangle;connectable=0;fillColor=none;top=0;left=0;bottom=0;right=0;align=left;spacingLeft=6;overflow=hidden;whiteSpace=wrap;html=1;fontSize=16;labelBackgroundColor=none;strokeColor=#D0CEE2;fontColor=#1A1A1A;" parent="PCRB14Bkoi_nJQecKA2T-578" vertex="1">
          <mxGeometry x="90" width="450" height="30" as="geometry">
            <mxRectangle width="450" height="30" as="alternateBounds" />
          </mxGeometry>
        </mxCell>
        <mxCell id="PCRB14Bkoi_nJQecKA2T-581" value="" style="shape=tableRow;horizontal=0;startSize=0;swimlaneHead=0;swimlaneBody=0;fillColor=none;collapsible=0;dropTarget=0;points=[[0,0.5],[1,0.5]];portConstraint=eastwest;top=0;left=0;right=0;bottom=0;fontSize=16;labelBackgroundColor=none;strokeColor=#D0CEE2;fontColor=#1A1A1A;" parent="PCRB14Bkoi_nJQecKA2T-157" vertex="1">
          <mxGeometry y="810" width="540" height="40" as="geometry" />
        </mxCell>
        <mxCell id="PCRB14Bkoi_nJQecKA2T-582" value="" style="shape=partialRectangle;connectable=0;fillColor=none;top=0;left=0;bottom=0;right=0;editable=1;overflow=hidden;whiteSpace=wrap;html=1;fontSize=16;labelBackgroundColor=none;strokeColor=#D0CEE2;fontColor=#1A1A1A;" parent="PCRB14Bkoi_nJQecKA2T-581" vertex="1">
          <mxGeometry width="90" height="40" as="geometry">
            <mxRectangle width="90" height="40" as="alternateBounds" />
          </mxGeometry>
        </mxCell>
        <mxCell id="PCRB14Bkoi_nJQecKA2T-583" value="iCert_sign VARCHAR(600) NOT NULL" style="shape=partialRectangle;connectable=0;fillColor=none;top=0;left=0;bottom=0;right=0;align=left;spacingLeft=6;overflow=hidden;whiteSpace=wrap;html=1;fontSize=16;labelBackgroundColor=none;strokeColor=#D0CEE2;fontColor=#1A1A1A;" parent="PCRB14Bkoi_nJQecKA2T-581" vertex="1">
          <mxGeometry x="90" width="450" height="40" as="geometry">
            <mxRectangle width="450" height="40" as="alternateBounds" />
          </mxGeometry>
        </mxCell>
        <mxCell id="PCRB14Bkoi_nJQecKA2T-614" value="" style="shape=tableRow;horizontal=0;startSize=0;swimlaneHead=0;swimlaneBody=0;fillColor=none;collapsible=0;dropTarget=0;points=[[0,0.5],[1,0.5]];portConstraint=eastwest;top=0;left=0;right=0;bottom=0;fontSize=16;labelBackgroundColor=none;strokeColor=#D0CEE2;fontColor=#1A1A1A;" parent="PCRB14Bkoi_nJQecKA2T-157" vertex="1">
          <mxGeometry y="850" width="540" height="30" as="geometry" />
        </mxCell>
        <mxCell id="PCRB14Bkoi_nJQecKA2T-615" value="" style="shape=partialRectangle;connectable=0;fillColor=none;top=0;left=0;bottom=0;right=0;editable=1;overflow=hidden;whiteSpace=wrap;html=1;fontSize=16;labelBackgroundColor=none;strokeColor=#D0CEE2;fontColor=#1A1A1A;" parent="PCRB14Bkoi_nJQecKA2T-614" vertex="1">
          <mxGeometry width="90" height="30" as="geometry">
            <mxRectangle width="90" height="30" as="alternateBounds" />
          </mxGeometry>
        </mxCell>
        <mxCell id="PCRB14Bkoi_nJQecKA2T-616" value="iCert_sign_algo VARCHAR (50) NOT NULL" style="shape=partialRectangle;connectable=0;fillColor=none;top=0;left=0;bottom=0;right=0;align=left;spacingLeft=6;overflow=hidden;whiteSpace=wrap;html=1;fontSize=16;labelBackgroundColor=none;strokeColor=#D0CEE2;fontColor=#1A1A1A;" parent="PCRB14Bkoi_nJQecKA2T-614" vertex="1">
          <mxGeometry x="90" width="450" height="30" as="geometry">
            <mxRectangle width="450" height="30" as="alternateBounds" />
          </mxGeometry>
        </mxCell>
        <mxCell id="PCRB14Bkoi_nJQecKA2T-617" value="" style="shape=tableRow;horizontal=0;startSize=0;swimlaneHead=0;swimlaneBody=0;fillColor=none;collapsible=0;dropTarget=0;points=[[0,0.5],[1,0.5]];portConstraint=eastwest;top=0;left=0;right=0;bottom=0;fontSize=16;labelBackgroundColor=none;strokeColor=#D0CEE2;fontColor=#1A1A1A;" parent="PCRB14Bkoi_nJQecKA2T-157" vertex="1">
          <mxGeometry y="880" width="540" height="30" as="geometry" />
        </mxCell>
        <mxCell id="PCRB14Bkoi_nJQecKA2T-618" value="" style="shape=partialRectangle;connectable=0;fillColor=none;top=0;left=0;bottom=0;right=0;editable=1;overflow=hidden;whiteSpace=wrap;html=1;fontSize=16;labelBackgroundColor=none;strokeColor=#D0CEE2;fontColor=#1A1A1A;" parent="PCRB14Bkoi_nJQecKA2T-617" vertex="1">
          <mxGeometry width="90" height="30" as="geometry">
            <mxRectangle width="90" height="30" as="alternateBounds" />
          </mxGeometry>
        </mxCell>
        <mxCell id="PCRB14Bkoi_nJQecKA2T-619" value="" style="shape=partialRectangle;connectable=0;fillColor=none;top=0;left=0;bottom=0;right=0;align=left;spacingLeft=6;overflow=hidden;whiteSpace=wrap;html=1;fontSize=16;labelBackgroundColor=none;strokeColor=#D0CEE2;fontColor=#1A1A1A;" parent="PCRB14Bkoi_nJQecKA2T-617" vertex="1">
          <mxGeometry x="90" width="450" height="30" as="geometry">
            <mxRectangle width="450" height="30" as="alternateBounds" />
          </mxGeometry>
        </mxCell>
        <mxCell id="sTGas-mFVDPfC52rBdnj-202" value="" style="shape=tableRow;horizontal=0;startSize=0;swimlaneHead=0;swimlaneBody=0;fillColor=none;collapsible=0;dropTarget=0;points=[[0,0.5],[1,0.5]];portConstraint=eastwest;top=0;left=0;right=0;bottom=0;fontSize=16;labelBackgroundColor=none;strokeColor=#D0CEE2;fontColor=#1A1A1A;" parent="PCRB14Bkoi_nJQecKA2T-157" vertex="1">
          <mxGeometry y="910" width="540" height="30" as="geometry" />
        </mxCell>
        <mxCell id="sTGas-mFVDPfC52rBdnj-203" value="" style="shape=partialRectangle;connectable=0;fillColor=none;top=0;left=0;bottom=0;right=0;editable=1;overflow=hidden;whiteSpace=wrap;html=1;fontSize=16;labelBackgroundColor=none;strokeColor=#D0CEE2;fontColor=#1A1A1A;" parent="sTGas-mFVDPfC52rBdnj-202" vertex="1">
          <mxGeometry width="90" height="30" as="geometry">
            <mxRectangle width="90" height="30" as="alternateBounds" />
          </mxGeometry>
        </mxCell>
        <mxCell id="sTGas-mFVDPfC52rBdnj-204" value="iCert_ocsp_url VARCHAR (50)" style="shape=partialRectangle;connectable=0;fillColor=none;top=0;left=0;bottom=0;right=0;align=left;spacingLeft=6;overflow=hidden;whiteSpace=wrap;html=1;fontSize=16;labelBackgroundColor=none;strokeColor=#D0CEE2;fontColor=#1A1A1A;" parent="sTGas-mFVDPfC52rBdnj-202" vertex="1">
          <mxGeometry x="90" width="450" height="30" as="geometry">
            <mxRectangle width="450" height="30" as="alternateBounds" />
          </mxGeometry>
        </mxCell>
        <mxCell id="PCRB14Bkoi_nJQecKA2T-538" value="" style="shape=tableRow;horizontal=0;startSize=0;swimlaneHead=0;swimlaneBody=0;fillColor=none;collapsible=0;dropTarget=0;points=[[0,0.5],[1,0.5]];portConstraint=eastwest;top=0;left=0;right=0;bottom=0;fontSize=16;labelBackgroundColor=none;strokeColor=#D0CEE2;fontColor=#1A1A1A;" parent="PCRB14Bkoi_nJQecKA2T-157" vertex="1">
          <mxGeometry y="940" width="540" height="30" as="geometry" />
        </mxCell>
        <mxCell id="PCRB14Bkoi_nJQecKA2T-539" value="" style="shape=partialRectangle;connectable=0;fillColor=none;top=0;left=0;bottom=0;right=0;editable=1;overflow=hidden;whiteSpace=wrap;html=1;fontSize=16;labelBackgroundColor=none;strokeColor=#D0CEE2;fontColor=#1A1A1A;" parent="PCRB14Bkoi_nJQecKA2T-538" vertex="1">
          <mxGeometry width="90" height="30" as="geometry">
            <mxRectangle width="90" height="30" as="alternateBounds" />
          </mxGeometry>
        </mxCell>
        <mxCell id="PCRB14Bkoi_nJQecKA2T-540" value="" style="shape=partialRectangle;connectable=0;fillColor=none;top=0;left=0;bottom=0;right=0;align=left;spacingLeft=6;overflow=hidden;whiteSpace=wrap;html=1;fontSize=16;labelBackgroundColor=none;strokeColor=#D0CEE2;fontColor=#1A1A1A;" parent="PCRB14Bkoi_nJQecKA2T-538" vertex="1">
          <mxGeometry x="90" width="450" height="30" as="geometry">
            <mxRectangle width="450" height="30" as="alternateBounds" />
          </mxGeometry>
        </mxCell>
        <mxCell id="PCRB14Bkoi_nJQecKA2T-185" value="" style="shape=tableRow;horizontal=0;startSize=0;swimlaneHead=0;swimlaneBody=0;fillColor=none;collapsible=0;dropTarget=0;points=[[0,0.5],[1,0.5]];portConstraint=eastwest;top=0;left=0;right=0;bottom=0;fontSize=16;labelBackgroundColor=none;strokeColor=#D0CEE2;fontColor=#1A1A1A;" parent="PCRB14Bkoi_nJQecKA2T-157" vertex="1">
          <mxGeometry y="970" width="540" height="40" as="geometry" />
        </mxCell>
        <mxCell id="PCRB14Bkoi_nJQecKA2T-186" value="" style="shape=partialRectangle;connectable=0;fillColor=none;top=0;left=0;bottom=0;right=0;editable=1;overflow=hidden;whiteSpace=wrap;html=1;fontSize=16;labelBackgroundColor=none;strokeColor=#D0CEE2;fontColor=#1A1A1A;" parent="PCRB14Bkoi_nJQecKA2T-185" vertex="1">
          <mxGeometry width="90" height="40" as="geometry">
            <mxRectangle width="90" height="40" as="alternateBounds" />
          </mxGeometry>
        </mxCell>
        <mxCell id="PCRB14Bkoi_nJQecKA2T-187" value="iCert_CRL VARCHAR(255) NOT NULL" style="shape=partialRectangle;connectable=0;fillColor=none;top=0;left=0;bottom=0;right=0;align=left;spacingLeft=6;overflow=hidden;whiteSpace=wrap;html=1;fontSize=16;labelBackgroundColor=none;strokeColor=#D0CEE2;fontColor=#1A1A1A;" parent="PCRB14Bkoi_nJQecKA2T-185" vertex="1">
          <mxGeometry x="90" width="450" height="40" as="geometry">
            <mxRectangle width="450" height="40" as="alternateBounds" />
          </mxGeometry>
        </mxCell>
        <mxCell id="PCRB14Bkoi_nJQecKA2T-188" value="" style="shape=tableRow;horizontal=0;startSize=0;swimlaneHead=0;swimlaneBody=0;fillColor=none;collapsible=0;dropTarget=0;points=[[0,0.5],[1,0.5]];portConstraint=eastwest;top=0;left=0;right=0;bottom=0;fontSize=16;labelBackgroundColor=none;strokeColor=#D0CEE2;fontColor=#1A1A1A;" parent="PCRB14Bkoi_nJQecKA2T-157" vertex="1">
          <mxGeometry y="1010" width="540" height="30" as="geometry" />
        </mxCell>
        <mxCell id="PCRB14Bkoi_nJQecKA2T-189" value="" style="shape=partialRectangle;connectable=0;fillColor=none;top=0;left=0;bottom=0;right=0;editable=1;overflow=hidden;whiteSpace=wrap;html=1;fontSize=16;labelBackgroundColor=none;strokeColor=#D0CEE2;fontColor=#1A1A1A;" parent="PCRB14Bkoi_nJQecKA2T-188" vertex="1">
          <mxGeometry width="90" height="30" as="geometry">
            <mxRectangle width="90" height="30" as="alternateBounds" />
          </mxGeometry>
        </mxCell>
        <mxCell id="PCRB14Bkoi_nJQecKA2T-190" value="raw_iCert TEXT NOT NULL" style="shape=partialRectangle;connectable=0;fillColor=none;top=0;left=0;bottom=0;right=0;align=left;spacingLeft=6;overflow=hidden;whiteSpace=wrap;html=1;fontSize=16;labelBackgroundColor=none;strokeColor=#D0CEE2;fontColor=#1A1A1A;" parent="PCRB14Bkoi_nJQecKA2T-188" vertex="1">
          <mxGeometry x="90" width="450" height="30" as="geometry">
            <mxRectangle width="450" height="30" as="alternateBounds" />
          </mxGeometry>
        </mxCell>
        <mxCell id="PCRB14Bkoi_nJQecKA2T-378" value="" style="edgeStyle=entityRelationEdgeStyle;fontSize=12;html=1;endArrow=ERoneToMany;rounded=0;entryX=1;entryY=0.5;entryDx=0;entryDy=0;labelBackgroundColor=none;strokeColor=#736CA8;fontColor=default;" parent="1" source="PCRB14Bkoi_nJQecKA2T-380" target="sTGas-mFVDPfC52rBdnj-193" edge="1">
          <mxGeometry width="100" height="100" relative="1" as="geometry">
            <mxPoint x="-2370" y="-1520" as="sourcePoint" />
            <mxPoint x="-2270" y="-1620" as="targetPoint" />
          </mxGeometry>
        </mxCell>
        <mxCell id="PCRB14Bkoi_nJQecKA2T-380" value="has" style="shape=rhombus;perimeter=rhombusPerimeter;whiteSpace=wrap;html=1;align=center;labelBackgroundColor=none;fillColor=#5D7F99;strokeColor=#D0CEE2;fontColor=#1A1A1A;" parent="1" vertex="1">
          <mxGeometry x="-2610" y="-1960" width="90" height="70" as="geometry" />
        </mxCell>
        <mxCell id="sTGas-mFVDPfC52rBdnj-128" value="" style="endArrow=none;html=1;rounded=0;exitX=1;exitY=0.5;exitDx=0;exitDy=0;entryX=0;entryY=0.5;entryDx=0;entryDy=0;labelBackgroundColor=none;strokeColor=#736CA8;fontColor=default;" parent="1" source="PCRB14Bkoi_nJQecKA2T-380" edge="1">
          <mxGeometry width="50" height="50" relative="1" as="geometry">
            <mxPoint x="-2400" y="-1470" as="sourcePoint" />
            <mxPoint x="-2418" y="-1925" as="targetPoint" />
            <Array as="points" />
          </mxGeometry>
        </mxCell>
        <mxCell id="sTGas-mFVDPfC52rBdnj-131" value="" style="endArrow=none;html=1;rounded=0;entryX=0;entryY=0.5;entryDx=0;entryDy=0;exitX=1;exitY=0.5;exitDx=0;exitDy=0;labelBackgroundColor=none;strokeColor=#736CA8;fontColor=default;" parent="1" source="PCRB14Bkoi_nJQecKA2T-48" target="PCRB14Bkoi_nJQecKA2T-297" edge="1">
          <mxGeometry width="50" height="50" relative="1" as="geometry">
            <mxPoint x="-1940" y="-1490" as="sourcePoint" />
            <mxPoint x="-1660" y="-1130" as="targetPoint" />
            <Array as="points" />
          </mxGeometry>
        </mxCell>
        <mxCell id="sTGas-mFVDPfC52rBdnj-133" value="" style="endArrow=none;html=1;rounded=0;exitX=1;exitY=0.5;exitDx=0;exitDy=0;entryX=0;entryY=0.5;entryDx=0;entryDy=0;labelBackgroundColor=none;strokeColor=#736CA8;fontColor=default;" parent="1" source="PCRB14Bkoi_nJQecKA2T-2" target="PCRB14Bkoi_nJQecKA2T-284" edge="1">
          <mxGeometry width="50" height="50" relative="1" as="geometry">
            <mxPoint x="-240" y="-1920" as="sourcePoint" />
            <mxPoint x="-190" y="-1970" as="targetPoint" />
            <Array as="points">
              <mxPoint x="-770" y="-2045" />
              <mxPoint x="-720" y="-2120" />
            </Array>
          </mxGeometry>
        </mxCell>
        <mxCell id="sTGas-mFVDPfC52rBdnj-135" value="" style="endArrow=none;html=1;rounded=0;exitX=1;exitY=0.5;exitDx=0;exitDy=0;entryX=0;entryY=0.5;entryDx=0;entryDy=0;labelBackgroundColor=none;strokeColor=#736CA8;fontColor=default;" parent="1" source="PCRB14Bkoi_nJQecKA2T-2" target="PCRB14Bkoi_nJQecKA2T-287" edge="1">
          <mxGeometry width="50" height="50" relative="1" as="geometry">
            <mxPoint x="-240" y="-1920" as="sourcePoint" />
            <mxPoint x="-190" y="-1970" as="targetPoint" />
            <Array as="points">
              <mxPoint x="-770" y="-2045" />
              <mxPoint x="-720" y="-1953" />
            </Array>
          </mxGeometry>
        </mxCell>
        <mxCell id="sTGas-mFVDPfC52rBdnj-144" value="" style="edgeStyle=entityRelationEdgeStyle;fontSize=12;html=1;endArrow=ERoneToMany;startArrow=ERoneToMany;rounded=0;exitX=1;exitY=0.5;exitDx=0;exitDy=0;labelBackgroundColor=none;strokeColor=#736CA8;fontColor=default;" parent="1" source="PCRB14Bkoi_nJQecKA2T-192" target="PCRB14Bkoi_nJQecKA2T-208" edge="1">
          <mxGeometry width="100" height="100" relative="1" as="geometry">
            <mxPoint x="-1920" y="-2730" as="sourcePoint" />
            <mxPoint x="-1530" y="-2500" as="targetPoint" />
          </mxGeometry>
        </mxCell>
        <mxCell id="sTGas-mFVDPfC52rBdnj-158" value="" style="edgeStyle=entityRelationEdgeStyle;fontSize=12;html=1;endArrow=ERoneToMany;rounded=0;labelBackgroundColor=none;strokeColor=#736CA8;fontColor=default;" parent="1" source="sTGas-mFVDPfC52rBdnj-160" target="sTGas-mFVDPfC52rBdnj-173" edge="1">
          <mxGeometry width="100" height="100" relative="1" as="geometry">
            <mxPoint x="-2150" y="-2230" as="sourcePoint" />
            <mxPoint x="-2093" y="-2260" as="targetPoint" />
            <Array as="points" />
          </mxGeometry>
        </mxCell>
        <mxCell id="sTGas-mFVDPfC52rBdnj-160" value="&lt;div&gt;issuer employees&lt;/div&gt;&lt;div&gt;can&lt;br&gt;&lt;/div&gt;" style="shape=rhombus;perimeter=rhombusPerimeter;whiteSpace=wrap;html=1;align=center;labelBackgroundColor=none;fillColor=#5D7F99;strokeColor=#D0CEE2;fontColor=#1A1A1A;" parent="1" vertex="1">
          <mxGeometry x="-2080" y="-2250" width="140" height="80" as="geometry" />
        </mxCell>
        <mxCell id="sTGas-mFVDPfC52rBdnj-168" value="" style="endArrow=none;html=1;rounded=0;exitX=0;exitY=0.5;exitDx=0;exitDy=0;entryX=0.453;entryY=0.005;entryDx=0;entryDy=0;entryPerimeter=0;labelBackgroundColor=none;strokeColor=#736CA8;fontColor=default;" parent="1" source="sTGas-mFVDPfC52rBdnj-160" target="PCRB14Bkoi_nJQecKA2T-72" edge="1">
          <mxGeometry relative="1" as="geometry">
            <mxPoint x="-2180" y="-2130" as="sourcePoint" />
            <mxPoint x="-2020" y="-2130" as="targetPoint" />
            <Array as="points">
              <mxPoint x="-2240" y="-2200" />
            </Array>
          </mxGeometry>
        </mxCell>
        <mxCell id="a8R6ChUF0B7tEaSIY0sK-4" value="" style="edgeStyle=entityRelationEdgeStyle;fontSize=12;html=1;endArrow=ERoneToMany;rounded=0;labelBackgroundColor=none;strokeColor=#736CA8;fontColor=default;" parent="1" source="a8R6ChUF0B7tEaSIY0sK-8" target="a8R6ChUF0B7tEaSIY0sK-5" edge="1">
          <mxGeometry width="100" height="100" relative="1" as="geometry">
            <mxPoint x="-2490" y="-1780" as="sourcePoint" />
            <mxPoint x="-2540" y="-1705" as="targetPoint" />
          </mxGeometry>
        </mxCell>
        <mxCell id="a8R6ChUF0B7tEaSIY0sK-8" value="Certificate Chaining" style="shape=rhombus;perimeter=rhombusPerimeter;whiteSpace=wrap;html=1;align=center;labelBackgroundColor=none;fillColor=#5D7F99;strokeColor=#D0CEE2;fontColor=#1A1A1A;" parent="1" vertex="1">
          <mxGeometry x="-2324" y="-1710" width="210" height="100" as="geometry" />
        </mxCell>
        <mxCell id="a8R6ChUF0B7tEaSIY0sK-10" value="" style="endArrow=none;html=1;rounded=0;entryX=0;entryY=0.5;entryDx=0;entryDy=0;labelBackgroundColor=none;strokeColor=#736CA8;fontColor=default;" parent="1" source="PCRB14Bkoi_nJQecKA2T-157" target="a8R6ChUF0B7tEaSIY0sK-8" edge="1">
          <mxGeometry relative="1" as="geometry">
            <mxPoint x="-2510" y="-1654" as="sourcePoint" />
            <mxPoint x="-2350" y="-1654" as="targetPoint" />
          </mxGeometry>
        </mxCell>
        <mxCell id="l53yZAigAHW99kFWq3vM-1" value="&lt;b&gt;&lt;font style=&quot;font-size: 60px;&quot;&gt;Database Design&lt;/font&gt;&lt;/b&gt;" style="rounded=0;whiteSpace=wrap;html=1;labelBackgroundColor=none;fillColor=#5D7F99;strokeColor=#D0CEE2;fontColor=#1A1A1A;" vertex="1" parent="1">
          <mxGeometry x="-2340" y="-3140" width="1170" height="140" as="geometry" />
        </mxCell>
      </root>
    </mxGraphModel>
  </diagram>
</mxfile>
